<svg width="40" height="40" viewBox="0 0 40 40" fill="none" xmlns="http://www.w3.org/2000/svg">
<path d="M7.11951 14.4004C6.55738 14.4004 6.01828 14.61 5.62079 14.9831C5.22331 15.3562 5 15.8623 5 16.39V24.7863C5 25.314 5.22331 25.82 5.62079 26.1932C6.01828 26.5663 6.55738 26.7759 7.11951 26.7759C7.68164 26.7759 8.22075 26.5663 8.61823 26.1932C9.01572 25.82 9.23901 25.314 9.23901 24.7863V16.39C9.23901 15.8623 9.01572 15.3562 8.61823 14.9831C8.22075 14.61 7.68164 14.4004 7.11951 14.4004Z" fill="#A3C939"/>
<path d="M31.889 14.4004C31.3269 14.4004 30.7878 14.61 30.3903 14.9831C29.9929 15.3562 29.7695 15.8623 29.7695 16.39V24.7863C29.7695 25.314 29.9929 25.82 30.3903 26.1932C30.7878 26.5663 31.3269 26.7759 31.889 26.7759C32.4512 26.7759 32.9903 26.5663 33.3878 26.1932C33.7853 25.82 34.0085 25.314 34.0085 24.7863V16.39C34.0085 15.8623 33.7853 15.3562 33.3878 14.9831C32.9903 14.61 32.4512 14.4004 31.889 14.4004Z" fill="#A3C939"/>
<path d="M24.7152 7.20686L26.293 4.75164L24.9683 4L23.3493 6.52017C22.1522 6.03296 20.861 5.78227 19.5563 5.78373C18.2515 5.78223 16.9603 6.03292 15.7632 6.52017L14.1442 4L12.8195 4.75164L14.3973 7.20686C13.1058 7.98657 12.034 9.04762 11.2731 10.2997C10.5122 11.5518 10.0849 12.958 10.0273 14.3984H29.0925C29.0342 12.9573 28.6057 11.5508 27.8435 10.2987C27.0814 9.04649 26.0081 7.98579 24.7152 7.20686ZM15.2363 11.0009C15.0445 11.0009 14.8569 10.9475 14.6974 10.8475C14.5379 10.7474 14.4136 10.6052 14.3402 10.4388C14.2668 10.2725 14.2475 10.0894 14.285 9.91277C14.3224 9.73615 14.4148 9.5739 14.5504 9.44656C14.6861 9.31922 14.8589 9.23251 15.0471 9.19737C15.2352 9.16224 15.4302 9.18027 15.6075 9.24918C15.7847 9.3181 15.9362 9.43481 16.0428 9.58455C16.1494 9.73428 16.2063 9.91032 16.2063 10.0904C16.2063 10.3319 16.1041 10.5635 15.9222 10.7342C15.7403 10.905 15.4936 11.0009 15.2363 11.0009ZM23.7732 11.0009C23.5813 11.0009 23.3938 10.9475 23.2343 10.8475C23.0748 10.7474 22.9505 10.6052 22.877 10.4388C22.8036 10.2725 22.7844 10.0894 22.8218 9.91277C22.8593 9.73615 22.9517 9.5739 23.0873 9.44656C23.223 9.31922 23.3958 9.23251 23.5839 9.19737C23.7721 9.16224 23.9671 9.18027 24.1444 9.24918C24.3216 9.3181 24.4731 9.43481 24.5797 9.58455C24.6862 9.73428 24.7431 9.91032 24.7431 10.0904C24.7431 10.2104 24.7178 10.3293 24.6687 10.4401C24.6196 10.5509 24.5477 10.6516 24.457 10.7362C24.3663 10.8208 24.2586 10.8878 24.1403 10.9332C24.0219 10.9786 23.8951 11.0016 23.7673 11.0009H23.7732Z" fill="#A3C939"/>
<path d="M24.7201 7.20866L26.2979 4.75355L24.9733 4.00195L23.3542 6.522C22.1571 6.03482 20.8659 5.78414 19.5612 5.7856H19.5391V14.3999H29.093C29.0352 12.9592 28.6073 11.553 27.846 10.301C27.0846 9.04888 26.0122 7.98802 24.7201 7.20866ZM23.7722 11.0025C23.5804 11.0025 23.3928 10.9491 23.2333 10.8491C23.0738 10.7491 22.9495 10.6069 22.8761 10.4405C22.8027 10.2741 22.7834 10.0911 22.8209 9.91444C22.8583 9.73783 22.9507 9.57559 23.0863 9.44826C23.222 9.32092 23.3948 9.23421 23.583 9.19908C23.7711 9.16395 23.9662 9.18198 24.1434 9.25089C24.3206 9.3198 24.4721 9.43651 24.5787 9.58624C24.6853 9.73596 24.7422 9.91199 24.7422 10.0921C24.7422 10.2116 24.7171 10.33 24.6683 10.4405C24.6196 10.551 24.5481 10.6513 24.458 10.7359C24.368 10.8204 24.2611 10.8875 24.1434 10.9332C24.0257 10.979 23.8996 11.0025 23.7722 11.0025Z" fill="#A3C939"/>
<path d="M9.96484 29.7131H13.7387V34.1539C13.7387 34.6816 13.9621 35.1877 14.3595 35.5608C14.757 35.9339 15.2961 36.1436 15.8582 36.1436C16.4204 36.1436 16.9595 35.9339 17.3569 35.5608C17.7544 35.1877 17.9777 34.6816 17.9777 34.1539V29.7131H20.9215V34.1539C20.9215 34.6816 21.1448 35.1877 21.5423 35.5608C21.9398 35.9339 22.4789 36.1436 23.041 36.1436C23.6031 36.1436 24.1422 35.9339 24.5397 35.5608C24.9372 35.1877 25.1605 34.6816 25.1605 34.1539V29.7131H29.0389V15.7344H9.96484V29.7131Z" fill="#A3C939"/>
<path d="M19.5352 15.7344V29.7131H20.9275V34.1539C20.9275 34.6816 21.1509 35.1877 21.5483 35.5608C21.9458 35.9339 22.4849 36.1436 23.047 36.1436C23.6091 36.1436 24.1483 35.9339 24.5458 35.5608C24.9432 35.1877 25.1665 34.6816 25.1665 34.1539V29.7131H29.0449V15.7344H19.5352Z" fill="#A3C939"/>
</svg>
