<svg width="40" height="40" viewBox="0 0 40 40" fill="none" xmlns="http://www.w3.org/2000/svg">
<path d="M29.1148 20.6371C29.0761 16.4472 32.6335 14.4088 32.7961 14.3139C30.7815 11.45 27.6588 11.0587 26.5615 11.0275C23.9388 10.7584 21.3948 12.5576 20.0588 12.5576C18.6961 12.5576 16.6388 11.0535 14.4215 11.0977C11.5681 11.1406 8.89879 12.7513 7.43479 15.2525C4.41346 20.3524 6.66679 27.8469 9.56146 31.9692C11.0095 33.9881 12.7015 36.2423 14.9161 36.163C17.0828 36.0759 17.8921 34.8162 20.5068 34.8162C23.0975 34.8162 23.8575 36.163 26.1161 36.1123C28.4415 36.0759 29.9055 34.0843 31.3028 32.0472C32.9761 29.7332 33.6481 27.4543 33.6748 27.3373C33.6201 27.3191 29.1588 25.659 29.1148 20.6371Z" fill="white"/>
<path d="M24.8481 8.3157C26.0135 6.8948 26.8108 4.9617 26.5895 3C24.9028 3.0728 22.7935 4.1375 21.5788 5.5272C20.5041 6.7518 19.5441 8.759 19.7921 10.6466C21.6868 10.7844 23.6321 9.7145 24.8481 8.3157Z" fill="white"/>
</svg>
