<svg width="196" height="48" viewBox="0 0 196 48" fill="none" xmlns="http://www.w3.org/2000/svg">
<path d="M24 0.5H172C184.979 0.5 195.5 11.0213 195.5 24C195.5 36.9787 184.979 47.5 172 47.5H24C11.0213 47.5 0.5 36.9787 0.5 24C0.5 11.0213 11.0213 0.5 24 0.5Z" fill="black" stroke="#878787"/>
<path d="M58.5835 33.1199C58.5588 33.6608 58.454 34.1469 58.2689 34.578C58.0838 35.0131 57.8288 35.3816 57.5039 35.6834C57.179 35.9891 56.7863 36.2243 56.3257 36.3891C55.8651 36.5537 55.3448 36.6358 54.7649 36.6358H54V35.1719H54.7649C55.1598 35.1719 55.5011 35.1327 55.789 35.0543C56.0769 34.9759 56.3133 34.8504 56.4984 34.678C56.6835 34.5055 56.8213 34.2801 56.9117 34.0018C57.0022 33.7274 57.0474 33.3923 57.0474 32.9964V29.4157H58.5835V33.1199ZM63.1427 33.4785C62.6904 33.4785 62.3018 33.4511 61.9769 33.3962C61.652 33.3452 61.3785 33.2688 61.1564 33.1669C60.9344 33.0611 60.7555 32.9278 60.6197 32.7671C60.4881 32.6064 60.3874 32.4182 60.3175 32.2026C60.2476 31.987 60.2002 31.744 60.1756 31.4736C60.155 31.1991 60.1447 30.8974 60.1447 30.5681V25H61.6808V30.5681C61.6808 30.8817 61.6911 31.1325 61.7116 31.3207C61.7363 31.5088 61.796 31.6558 61.8905 31.7617C61.9892 31.8636 62.1352 31.9322 62.3285 31.9674C62.5259 31.9988 62.7974 32.0145 63.1427 32.0145V33.4785ZM65.5843 32.0145C65.6667 32.0145 65.7283 32.0361 65.7695 32.0792C65.8148 32.1183 65.8371 32.1713 65.8371 32.2379V33.2433C65.8371 33.3296 65.8148 33.3903 65.7695 33.4256C65.7283 33.4609 65.6667 33.4785 65.5843 33.4785H63.0059C62.9153 33.4785 62.8514 33.4609 62.8144 33.4256C62.7773 33.3903 62.7588 33.3296 62.7588 33.2433V32.2379C62.7588 32.1713 62.7773 32.1183 62.8144 32.0792C62.8514 32.0361 62.9153 32.0145 63.0059 32.0145H65.5843ZM68.1378 32.0145C68.2202 32.0145 68.2818 32.0361 68.323 32.0792C68.3679 32.1183 68.3906 32.1713 68.3906 32.2379V33.2433C68.3906 33.3296 68.3679 33.3903 68.323 33.4256C68.2818 33.4609 68.2202 33.4785 68.1378 33.4785H65.559C65.4687 33.4785 65.4049 33.4609 65.3678 33.4256C65.3308 33.3903 65.3123 33.3296 65.3123 33.2433V32.2379C65.3123 32.1713 65.3308 32.1183 65.3678 32.0792C65.4049 32.0361 65.4687 32.0145 65.559 32.0145H68.1378ZM74.6269 32.0145V33.4785H73.7141C73.3642 33.4785 73.0457 33.4334 72.7577 33.3433C72.4698 33.2531 72.2272 33.1199 72.03 32.9435C71.7995 33.1277 71.526 33.2629 71.2093 33.3492C70.8968 33.4354 70.539 33.4785 70.1359 33.4785H68.0014V32.0145H70.1359C70.3868 32.0145 70.5863 31.9929 70.7344 31.9498C70.8866 31.9028 70.9996 31.8459 71.0737 31.7793C71.1519 31.7127 71.201 31.6382 71.2218 31.5559C71.2464 31.4736 71.2588 31.3932 71.2588 31.3148V29.4098H72.7887V31.2736C72.7887 31.45 72.8299 31.5892 72.9119 31.6911C72.9943 31.7891 73.0868 31.8636 73.1896 31.9145C73.2965 31.9616 73.4012 31.991 73.5044 32.0027C73.6071 32.0106 73.677 32.0145 73.7141 32.0145H74.6269ZM72.5356 27.8928L71.4991 26.8933L72.5235 25.882L73.5845 26.8933L72.5356 27.8928ZM69.9507 27.8987L68.9147 26.8991L69.9322 25.8878L70.9936 26.8991L69.9507 27.8987ZM79.1584 33.4667C78.4061 33.4667 77.8095 33.2806 77.3697 32.9082C77.1434 33.1081 76.8925 33.2531 76.617 33.3433C76.3416 33.4334 76.0578 33.4785 75.7658 33.4785H74.3776V32.0145H75.7658C75.8149 32.0145 75.8848 32.0066 75.9755 31.991C76.0699 31.9753 76.1625 31.938 76.2532 31.8793C76.3476 31.8165 76.43 31.7264 76.4999 31.6088C76.5698 31.4873 76.6046 31.3207 76.6046 31.109V29.4157H78.1405V31.0855C78.1405 31.4069 78.2187 31.6421 78.3752 31.7911C78.5354 31.9361 78.7968 32.0086 79.1584 32.0086C79.2079 32.0086 79.2778 32.0008 79.3681 31.9851C79.463 31.9655 79.5555 31.9243 79.6458 31.8616C79.7403 31.7989 79.8227 31.7068 79.8926 31.5853C79.9625 31.4598 79.9976 31.2932 79.9976 31.0855V29.4157H81.5275V31.0855C81.5275 31.4069 81.6076 31.6441 81.7678 31.7969C81.9326 31.9459 82.1978 32.0204 82.5639 32.0204C82.6172 32.0204 82.6894 32.0106 82.7797 31.991C82.8742 31.9674 82.9667 31.9243 83.0574 31.8616C83.1477 31.795 83.2259 31.7009 83.2917 31.5794C83.3574 31.4579 83.3903 31.2932 83.3903 31.0855C83.3903 30.9992 83.3824 30.8954 83.3657 30.7739C83.3533 30.6524 83.3348 30.5249 83.3102 30.3917C83.2898 30.2545 83.2649 30.1173 83.2361 29.9801C83.2074 29.839 83.1787 29.7057 83.15 29.5803C83.1209 29.4549 83.0922 29.3412 83.0635 29.2393C83.0389 29.1374 83.0181 29.057 83.0019 28.9982L84.4517 28.5454C84.4596 28.5729 84.4762 28.6356 84.5008 28.7336C84.5253 28.8316 84.5544 28.9531 84.5873 29.0981C84.6243 29.2432 84.6614 29.4039 84.6984 29.5803C84.7354 29.7567 84.7683 29.935 84.797 30.1153C84.8299 30.2917 84.8567 30.4662 84.8771 30.6386C84.8975 30.8072 84.9081 30.9561 84.9081 31.0855C84.9081 31.4853 84.8382 31.8361 84.6984 32.1379C84.5624 32.4359 84.3836 32.6848 84.1615 32.8847C83.9393 33.0806 83.6884 33.2277 83.4088 33.3256C83.1292 33.4236 82.8477 33.4746 82.5639 33.4785C81.7988 33.4785 81.1943 33.2865 80.7503 32.9023C80.524 33.1022 80.2731 33.2472 79.9976 33.3374C79.7259 33.4236 79.4463 33.4667 79.1584 33.4667ZM88.2037 33.4785H86.6677V25H88.2037V33.4785ZM92.1994 33.4785C91.8948 33.4785 91.6069 33.4295 91.3356 33.3315C91.0639 33.2335 90.8236 33.0904 90.6139 32.9023C90.5316 32.8278 90.445 32.7377 90.3547 32.6319C90.2682 32.526 90.1904 32.4006 90.1205 32.2556C90.0502 32.1105 89.9928 31.9479 89.9474 31.7675C89.9025 31.5833 89.8798 31.3775 89.8798 31.1502C89.8798 30.9542 89.9002 30.7425 89.9414 30.5151C89.9826 30.2839 90.0279 30.0664 90.077 29.8625C90.1307 29.6587 90.1798 29.4823 90.2251 29.3333C90.2705 29.1844 90.2992 29.0923 90.3117 29.057L91.0454 29.2804L91.7735 29.498C91.7365 29.6038 91.6976 29.7312 91.6564 29.8802C91.6152 30.0252 91.5763 30.1761 91.5393 30.3329C91.5022 30.4858 91.4713 30.6347 91.4467 30.7797C91.4218 30.9248 91.4097 31.0502 91.4097 31.156C91.4097 31.3442 91.4361 31.4971 91.4898 31.6147C91.5472 31.7283 91.6152 31.8165 91.6934 31.8793C91.7754 31.938 91.8559 31.9753 91.9341 31.991C92.012 32.0066 92.1045 32.0145 92.2115 32.0145H99.5647C99.6142 32.0145 99.6841 32.0086 99.7748 31.9968C99.8692 31.9812 99.9618 31.9439 100.052 31.8851C100.147 31.8263 100.229 31.7381 100.299 31.6205C100.369 31.499 100.404 31.3344 100.404 31.1267C100.404 31.0404 100.396 30.9365 100.379 30.815C100.367 30.6896 100.348 30.5563 100.324 30.4152C100.299 30.2741 100.27 30.131 100.237 29.986C100.209 29.837 100.18 29.6959 100.151 29.5626C100.139 29.5117 100.128 29.4627 100.12 29.4157L101.576 29.0511C101.58 29.0707 101.584 29.0883 101.588 29.104C101.621 29.253 101.654 29.4176 101.687 29.5979C101.724 29.7782 101.757 29.9605 101.786 30.1448C101.819 30.325 101.843 30.5014 101.86 30.6739C101.88 30.8464 101.891 30.9973 101.891 31.1267C101.891 31.5304 101.82 31.8812 101.681 32.1791C101.541 32.4731 101.358 32.7161 101.132 32.9082C100.906 33.1003 100.651 33.2433 100.367 33.3374C100.087 33.4315 99.8054 33.4785 99.5216 33.4785H92.1994ZM93.7108 35.4012L94.7593 34.4016L95.8082 35.4129L94.7593 36.4125L93.7108 35.4012ZM96.2831 35.4129L97.3441 34.4134L98.3926 35.4247L97.3441 36.4241L96.2831 35.4129ZM95.0555 37.0593L96.03 36.1303L97.0173 37.0709L96.0424 38L95.0555 37.0593ZM105 33.4785H103.464V25H105V33.4785Z" fill="white"/>
<path d="M77.0834 15.3468C77.0667 15.7526 76.9976 16.1191 76.8758 16.4462C76.7565 16.7734 76.5889 17.052 76.3729 17.2822C76.1595 17.5124 75.9017 17.6895 75.5999 17.8137C75.2981 17.9379 74.9559 18 74.5734 18H74V17.005H74.5734C74.8505 17.005 75.0887 16.9732 75.2883 16.9096C75.4904 16.846 75.6566 16.7446 75.7868 16.6052C75.917 16.4689 76.014 16.2887 76.0777 16.0646C76.1417 15.8435 76.1733 15.5739 76.1733 15.2559V12.421H77.0834V15.3468ZM75.9159 10.4538L76.6056 9.69054L77.3121 10.4629L76.614 11.2261L75.9159 10.4538ZM79.0302 15.5603H78.1204V9.00906H79.0302V15.5603ZM85.0491 15.6012C84.8803 15.6012 84.7153 15.5921 84.5546 15.5739C84.4742 15.5649 84.3869 15.5527 84.2928 15.5376C84.1986 15.5225 84.1019 15.5013 84.0019 15.474C83.9051 15.4467 83.8066 15.4134 83.707 15.3741C83.6099 15.3316 83.5172 15.2832 83.4284 15.2286L83.0339 14.9833L83.4866 14.1201L83.8815 14.3655C83.9757 14.426 84.0906 14.4745 84.2266 14.5108C84.3651 14.5472 84.5116 14.5729 84.6669 14.5881C84.7942 14.6002 84.9233 14.6062 85.0534 14.6062C85.0811 14.6062 85.1407 14.6062 85.232 14.6062C85.3236 14.6032 85.4356 14.5911 85.5687 14.5699C85.7461 14.5396 85.8777 14.5018 85.9635 14.4563C86.0523 14.4079 86.1032 14.3624 86.1174 14.32C86.1254 14.3018 86.1297 14.2792 86.1297 14.2519C86.1297 14.2125 86.1199 14.1535 86.1006 14.0747C86.0814 13.996 86.0217 13.8748 85.9217 13.7112C85.6559 13.2721 85.4399 12.9162 85.2738 12.6436C85.1072 12.368 84.9771 12.1529 84.8829 11.9985C84.7887 11.844 84.7251 11.738 84.692 11.6804C84.6585 11.6229 84.6407 11.5926 84.6378 11.5896L84.3884 11.1716L85.1491 10.6264L85.3981 11.0444L85.4523 11.1307C85.4854 11.1883 85.5494 11.2943 85.6436 11.4488C85.7377 11.6032 85.8679 11.8183 86.0341 12.0939C86.2003 12.3695 86.4162 12.7254 86.6824 13.1615C86.8402 13.422 86.9468 13.6734 87.0024 13.9157C87.0271 14.0308 87.0398 14.1428 87.0398 14.2519C87.0398 14.4184 87.0093 14.5759 86.9482 14.7244C86.8515 14.9667 86.6864 15.1575 86.4537 15.2968C86.2515 15.421 86.001 15.5058 85.7018 15.5512C85.5963 15.5694 85.4898 15.5815 85.3818 15.5876C85.2738 15.5967 85.1629 15.6012 85.0491 15.6012ZM88.1932 17.005C88.6226 17.005 88.9743 16.9717 89.2488 16.9051C89.5229 16.8385 89.7389 16.734 89.8967 16.5916C89.9607 16.5341 90.016 16.472 90.0633 16.4053C90.1131 16.3417 90.1531 16.2675 90.1836 16.1827C90.2167 16.1009 90.2418 16.0086 90.2585 15.9056C90.2778 15.8057 90.2887 15.6905 90.2916 15.5603H89.5895C89.3869 15.5603 89.1822 15.53 88.9743 15.4695C88.7692 15.4059 88.5823 15.3014 88.4132 15.156C88.247 15.0106 88.1099 14.8183 88.002 14.579C87.8965 14.3397 87.8441 14.0444 87.8441 13.6931C87.8441 13.4871 87.8594 13.3024 87.8896 13.1388C87.9231 12.9753 87.9645 12.8299 88.0143 12.7027C88.0641 12.5724 88.1198 12.4603 88.1805 12.3665C88.2416 12.2726 88.3012 12.1908 88.3594 12.1211C88.5172 11.9485 88.6972 11.8152 88.8997 11.7213C89.1044 11.6244 89.3248 11.576 89.5604 11.576C89.7651 11.576 89.9564 11.6108 90.1338 11.6804C90.3138 11.7501 90.4745 11.8546 90.616 11.9939C90.8069 12.1908 90.9508 12.4392 91.0479 12.739C91.1476 13.0389 91.1977 13.3978 91.1977 13.8158V14.5654H91.958V15.5603H91.1977C91.1919 15.9783 91.1283 16.3311 91.0065 16.6189C90.8872 16.9066 90.7072 17.1565 90.4662 17.3685C90.3414 17.4745 90.2044 17.5669 90.0549 17.6456C89.9051 17.7274 89.7375 17.794 89.552 17.8455C89.3662 17.897 89.1615 17.9349 88.9368 17.9591C88.7154 17.9864 88.4674 18 88.1932 18V17.005ZM89.5604 12.5709C89.3055 12.5709 89.1073 12.6678 88.9659 12.8617C88.8248 13.0525 88.7543 13.3296 88.7543 13.6931C88.7543 13.8748 88.779 14.0217 88.8288 14.1338C88.8786 14.2458 88.9521 14.3367 89.0492 14.4064C89.0961 14.4397 89.1462 14.4669 89.1986 14.4881C89.2542 14.5063 89.307 14.5214 89.3568 14.5336C89.4066 14.5457 89.4509 14.5548 89.4895 14.5608C89.5313 14.5639 89.5644 14.5654 89.5895 14.5654H90.2916V13.8158C90.2916 13.6037 90.2778 13.4265 90.2502 13.2842C90.2225 13.1388 90.1865 13.0207 90.1422 12.9298C90.0978 12.839 90.048 12.7693 89.9924 12.7208C89.9396 12.6693 89.8858 12.633 89.8306 12.6118C89.7778 12.5906 89.7266 12.5785 89.6767 12.5755C89.6295 12.5724 89.5906 12.5709 89.5604 12.5709ZM93.655 14.5654C93.7274 14.5654 93.7634 14.6002 93.7634 14.6698V15.4467C93.7634 15.5225 93.7274 15.5603 93.655 15.5603H91.8766C91.8075 15.5603 91.7726 15.5225 91.7726 15.4467V14.6698C91.7726 14.6002 91.8075 14.5654 91.8766 14.5654H93.655ZM93.5732 14.5654C93.8641 14.5654 94.0884 14.5381 94.2463 14.4836C94.407 14.4291 94.5233 14.3609 94.5953 14.2792C94.6677 14.1974 94.7091 14.108 94.72 14.0111C94.7339 13.9112 94.7408 13.8158 94.7408 13.7249V9H95.6469V13.7249C95.6469 13.8339 95.6607 13.9384 95.6883 14.0384C95.7189 14.1353 95.7618 14.2216 95.8171 14.2973C95.8752 14.373 95.9476 14.4351 96.0334 14.4836C96.1192 14.529 96.2189 14.5563 96.3327 14.5654H96.4407V15.5603H96.3327C96.1941 15.5573 96.0749 15.5436 95.9752 15.5194C95.8752 15.4952 95.7825 15.4604 95.6967 15.4149C95.6134 15.3665 95.532 15.3089 95.4516 15.2423C95.3713 15.1757 95.2826 15.0984 95.1855 15.0106C95.1026 15.0984 95.0084 15.1772 94.9029 15.2469C94.7979 15.3135 94.68 15.371 94.5499 15.4195C94.4197 15.4649 94.2728 15.4997 94.1092 15.524C93.9485 15.5482 93.7699 15.5603 93.5732 15.5603V14.5654ZM98.6089 11.7758C98.6143 11.794 98.6256 11.844 98.642 11.9258C98.6587 12.0045 98.678 12.103 98.7001 12.2211C98.7252 12.3392 98.7489 12.4695 98.771 12.6118C98.7958 12.7542 98.8179 12.898 98.8376 13.0434C98.8594 13.1858 98.8776 13.3251 98.8914 13.4614C98.9052 13.5947 98.9121 13.7112 98.9121 13.8112C98.9121 14.111 98.8667 14.3715 98.775 14.5926C98.6838 14.8137 98.5645 14.9955 98.4176 15.1378C98.2736 15.2802 98.1104 15.3861 97.9275 15.4558C97.7446 15.5255 97.5617 15.5603 97.3788 15.5603H96.2567V14.5654H97.4079C97.4439 14.5654 97.4966 14.5593 97.5657 14.5472C97.6377 14.5351 97.7086 14.5048 97.7777 14.4563C97.8471 14.4048 97.9067 14.3291 97.9565 14.2292C98.0089 14.1292 98.0355 13.9899 98.0355 13.8112C98.0355 13.7446 98.03 13.6613 98.0187 13.5613C98.0078 13.4614 97.994 13.3539 97.9773 13.2387C97.9605 13.1237 97.9413 13.0056 97.9191 12.8844C97.8969 12.7632 97.8747 12.6497 97.8526 12.5437C97.8333 12.4377 97.8136 12.3422 97.7944 12.2575C97.7751 12.1726 97.7598 12.1075 97.7486 12.0621L98.6089 11.7758ZM97.2002 9.91769L97.89 9.15444L98.5965 9.92679L97.8984 10.69L97.2002 9.91769ZM100.884 15.5603H99.9739V9.00906H100.884V15.5603ZM104.01 15.6012C103.841 15.6012 103.676 15.5921 103.515 15.5739C103.435 15.5649 103.347 15.5527 103.253 15.5376C103.159 15.5225 103.062 15.5013 102.962 15.474C102.865 15.4467 102.767 15.4134 102.668 15.3741C102.57 15.3316 102.478 15.2832 102.389 15.2286L101.994 14.9833L102.447 14.1201L102.842 14.3655C102.936 14.426 103.051 14.4745 103.187 14.5108C103.325 14.5472 103.472 14.5729 103.627 14.5881C103.755 14.6002 103.883 14.6062 104.014 14.6062C104.042 14.6062 104.101 14.6062 104.192 14.6062C104.284 14.6032 104.396 14.5911 104.529 14.5699C104.706 14.5396 104.838 14.5018 104.924 14.4563C105.012 14.4079 105.064 14.3624 105.078 14.32C105.086 14.3018 105.09 14.2792 105.09 14.2519C105.09 14.2125 105.08 14.1535 105.061 14.0747C105.042 13.996 104.982 13.8748 104.882 13.7112C104.616 13.2721 104.4 12.9162 104.234 12.6436C104.068 12.368 103.938 12.1529 103.843 11.9985C103.749 11.844 103.686 11.738 103.652 11.6804C103.619 11.6229 103.601 11.5926 103.598 11.5896L103.349 11.1716L104.109 10.6264L104.359 11.0444L104.413 11.1307C104.446 11.1883 104.51 11.2943 104.604 11.4488C104.698 11.6032 104.828 11.8183 104.995 12.0939C105.161 12.3695 105.377 12.7254 105.643 13.1615C105.801 13.422 105.907 13.6734 105.963 13.9157C105.988 14.0308 106 14.1428 106 14.2519C106 14.4184 105.969 14.5759 105.909 14.7244C105.812 14.9667 105.647 15.1575 105.414 15.2968C105.212 15.421 104.961 15.5058 104.662 15.5512C104.557 15.5694 104.45 15.5815 104.342 15.5876C104.234 15.5967 104.123 15.6012 104.01 15.6012Z" fill="white"/>
<mask id="mask0_5253_1158" style="mask-type:luminance" maskUnits="userSpaceOnUse" x="112" y="9" width="30" height="30">
<path d="M141.765 9.20874H112V38.3333H141.765V9.20874Z" fill="white"/>
</mask>
<g mask="url(#mask0_5253_1158)">
<path d="M137.902 24.7278H115.862C113.729 24.7278 112 22.9944 112 20.8561C112 18.7177 113.729 16.9843 115.862 16.9843H137.902C140.035 16.9843 141.764 18.7177 141.764 20.8561C141.764 22.9944 140.035 24.7278 137.902 24.7278Z" fill="#F8F8FF"/>
<path d="M137.488 33.1174L131.058 11.9632C130.754 10.9632 130.079 10.1766 129.228 9.70319C129.215 9.69545 129.202 9.6877 129.188 9.68108C129.153 9.66117 129.116 9.64344 129.079 9.62465C129.057 9.61358 129.034 9.60142 129.011 9.59034C128.979 9.57489 128.946 9.56048 128.913 9.54611C128.886 9.53395 128.86 9.52176 128.834 9.51072C128.78 9.4886 128.727 9.46757 128.673 9.44767C128.668 9.44546 128.662 9.44322 128.655 9.44101C128.593 9.41889 128.53 9.39787 128.467 9.37908C128.461 9.37687 128.456 9.37575 128.45 9.37463C128.392 9.35693 128.333 9.34035 128.274 9.32598C128.274 9.32598 128.274 9.32598 128.273 9.32598C127.61 9.16004 126.897 9.16445 126.195 9.37463C124.955 9.74522 124.038 10.6744 123.639 11.8006C123.635 11.8139 123.629 11.826 123.623 11.8382L115.84 33.061C115.088 35.1153 116.119 37.3731 118.144 38.1032C120.17 38.8332 122.424 37.7613 123.176 35.7071L126.974 25.3518L130.014 35.352C130.636 37.3997 132.814 38.5589 134.877 37.9415C136.94 37.3245 138.11 35.1639 137.488 33.1174Z" fill="url(#paint0_linear_5253_1158)"/>
<path d="M140.141 24.0045L121.892 37.5303C120.125 38.839 117.647 38.5116 116.357 36.799C115.067 35.0866 115.453 32.6363 117.219 31.3276L135.468 17.8019C137.235 16.4932 139.713 16.8207 141.003 18.5331C142.293 20.2455 141.907 22.6958 140.141 24.0045Z" fill="url(#paint1_linear_5253_1158)"/>
</g>
<defs>
<linearGradient id="paint0_linear_5253_1158" x1="130.98" y1="27.3821" x2="134.801" y2="38.3333" gradientUnits="userSpaceOnUse">
<stop stop-color="#C2C5FF"/>
<stop offset="1" stop-color="white"/>
</linearGradient>
<linearGradient id="paint1_linear_5253_1158" x1="140.069" y1="18.8715" x2="119.465" y2="34.4149" gradientUnits="userSpaceOnUse">
<stop stop-color="white"/>
<stop offset="1" stop-color="#C3C5FF"/>
</linearGradient>
</defs>
</svg>
