<svg width="196" height="48" viewBox="0 0 196 48" fill="none" xmlns="http://www.w3.org/2000/svg">
<path d="M0.5 24C0.5 11.0213 11.0213 0.5 24 0.5H172C184.979 0.5 195.5 11.0213 195.5 24C195.5 36.9787 184.979 47.5 172 47.5H24C11.0213 47.5 0.5 36.9787 0.5 24Z" fill="#1D1D1B" stroke="#878787"/>
<path d="M66.66 12.4551H53.34C50.3908 12.4551 48 14.8459 48 17.7951V31.1151C48 34.0643 50.3908 36.4551 53.34 36.4551H66.66C69.6092 36.4551 72 34.0643 72 31.1151V17.7951C72 14.8459 69.6092 12.4551 66.66 12.4551Z" fill="white"/>
<path d="M63.2505 18.4546C64.063 17.5006 64.4656 16.2642 64.3705 15.0146C63.1426 15.1364 62.0063 15.7188 61.1905 16.6446C60.3934 17.5561 59.9906 18.7465 60.0705 19.9546C60.6798 19.9634 61.283 19.8327 61.8342 19.5728C62.3853 19.3128 62.8697 18.9304 63.2505 18.4546Z" fill="url(#paint0_linear_3040_22776)"/>
<path d="M61.8 22.6453C61.8 22.6453 60.03 24.2353 60 24.2353C59.97 24.2353 58.16 22.6153 58.16 22.6153C56.5571 20.958 54.3742 19.9866 52.07 19.9053H48V31.1153C48 32.5315 48.5626 33.8898 49.564 34.8912C50.5655 35.8927 51.9237 36.4553 53.34 36.4553H66.66C68.0763 36.4553 69.4345 35.8927 70.436 34.8912C71.4374 33.8898 72 32.5315 72 31.1153V19.9053H67.9C65.5873 19.9889 63.3986 20.972 61.8 22.6453Z" fill="url(#paint1_linear_3040_22776)"/>
<path d="M59.9907 30.8646C59.1495 30.866 58.3163 30.7009 57.5391 30.379C56.7619 30.0571 56.0561 29.5847 55.4622 28.9889C54.8683 28.3932 54.3981 27.6859 54.0786 26.9077C53.7591 26.1295 53.5967 25.2958 53.6007 24.4546C53.6007 24.2053 53.6997 23.9663 53.876 23.79C54.0523 23.6137 54.2914 23.5146 54.5407 23.5146C54.79 23.5146 55.0291 23.6137 55.2053 23.79C55.3816 23.9663 55.4807 24.2053 55.4807 24.4546C55.4396 25.0708 55.5254 25.6889 55.733 26.2705C55.9405 26.8521 56.2653 27.3849 56.6872 27.8359C57.1091 28.2869 57.6191 28.6464 58.1856 28.8922C58.7521 29.138 59.3631 29.2648 59.9807 29.2648C60.5982 29.2648 61.2092 29.138 61.7757 28.8922C62.3422 28.6464 62.8522 28.2869 63.2741 27.8359C63.696 27.3849 64.0208 26.8521 64.2283 26.2705C64.4359 25.6889 64.5218 25.0708 64.4807 24.4546C64.5046 24.2233 64.6134 24.0091 64.7861 23.8534C64.9588 23.6977 65.1831 23.6115 65.4157 23.6115C65.6482 23.6115 65.8725 23.6977 66.0452 23.8534C66.2179 24.0091 66.3267 24.2233 66.3507 24.4546C66.352 25.2933 66.1879 26.124 65.8679 26.8992C65.5478 27.6745 65.0781 28.379 64.4855 28.9725C63.893 29.566 63.1892 30.0368 62.4145 30.358C61.6398 30.6793 60.8093 30.8446 59.9707 30.8446L59.9907 30.8646Z" fill="white"/>
<path d="M111.77 27.4548H107.14C106.959 27.4561 106.78 27.4216 106.613 27.3534C106.445 27.2851 106.293 27.1844 106.165 27.0571C106.036 26.9297 105.935 26.7782 105.865 26.6114C105.796 26.4445 105.76 26.2655 105.76 26.0848V24.3848H103.07V28.0148C103.086 28.2052 103.063 28.3969 103.001 28.5778C102.939 28.7587 102.841 28.9248 102.711 29.0655C102.582 29.2063 102.425 29.3187 102.25 29.3956C102.075 29.4724 101.886 29.5121 101.695 29.5121C101.504 29.5121 101.315 29.4724 101.14 29.3956C100.965 29.3187 100.808 29.2063 100.678 29.0655C100.549 28.9248 100.451 28.7587 100.389 28.5778C100.327 28.3969 100.304 28.2052 100.32 28.0148V26.9448V24.3848H97.6699V27.9848C97.6699 28.3508 97.5246 28.7018 97.2658 28.9606C97.007 29.2194 96.6559 29.3648 96.2899 29.3648C95.9239 29.3648 95.5729 29.2194 95.3141 28.9606C95.0553 28.7018 94.9099 28.3508 94.9099 27.9848V27.1948V24.3848H92.2599V29.5648C92.2587 30.1588 92.1331 30.7461 91.8914 31.2887C91.6497 31.8314 91.2972 32.3176 90.8565 32.7159C90.4157 33.1143 89.8966 33.416 89.3323 33.6018C88.768 33.7876 88.1711 33.8533 87.5799 33.7948C86.5091 33.6594 85.526 33.1334 84.8191 32.3177C84.1123 31.5019 83.7316 30.454 83.7499 29.3748V27.0548C83.7447 26.7081 83.6713 26.3658 83.5338 26.0475C83.3962 25.7292 83.1974 25.4411 82.9485 25.1996C82.6996 24.9582 82.4056 24.7681 82.0833 24.6403C81.761 24.5125 81.4166 24.4495 81.0699 24.4548V29.3648C81.0476 31.0713 81.6424 32.7284 82.7449 34.0311C83.8473 35.3339 85.3833 36.1946 87.0699 36.4548C88.6819 36.6613 90.3152 36.2947 91.6843 35.4192C93.0534 34.5436 94.0713 33.2147 94.5599 31.6648C95.0894 31.9228 95.6709 32.0562 96.2599 32.0548C97.2561 32.0519 98.2153 31.6775 98.9499 31.0048C99.4153 31.4412 99.9784 31.76 100.592 31.9345C101.206 32.109 101.852 32.1342 102.478 32.0079C103.103 31.8817 103.689 31.6076 104.187 31.2087C104.685 30.8098 105.08 30.2976 105.34 29.7148C105.888 29.9962 106.494 30.1435 107.11 30.1448H114.39C114.395 29.7959 114.332 29.4495 114.203 29.1253C114.074 28.8011 113.882 28.5056 113.639 28.2556C113.395 28.0057 113.105 27.8063 112.784 27.6689C112.463 27.5314 112.119 27.4587 111.77 27.4548Z" fill="white"/>
<path d="M141.21 36.4555C141.911 36.4555 142.584 36.1777 143.08 35.6828C143.577 35.188 143.857 34.5166 143.86 33.8155V28.8555H141.21V36.4555Z" fill="white"/>
<path d="M116.7 36.3955C117.401 36.3955 118.074 36.1177 118.571 35.6229C119.067 35.1281 119.348 34.4566 119.35 33.7555V24.3955H116.7V36.3955Z" fill="white"/>
<path d="M134.56 27.0148H136.56C137.261 27.0174 137.935 26.7422 138.433 26.2492C138.932 25.7563 139.215 25.0859 139.22 24.3848H134.53C134.069 24.392 133.615 24.4903 133.193 24.674C132.771 24.8576 132.389 25.123 132.07 25.4548C131.402 26.1245 131.021 27.0287 131.01 27.9748C131.012 28.4381 131.106 28.8963 131.288 29.3223C131.47 29.7483 131.736 30.1334 132.07 30.4548C132.398 30.7867 132.789 31.0503 133.22 31.2305C133.651 31.4107 134.113 31.5039 134.58 31.5048H135.82C135.391 32.1778 134.8 32.7327 134.101 33.1187C133.402 33.5048 132.618 33.7097 131.82 33.7148C130.577 33.7308 129.378 33.2537 128.486 32.3878C127.594 31.5219 127.081 30.3378 127.06 29.0948V24.3948H124.34V29.1448C124.372 31.0423 125.13 32.8553 126.46 34.2099C127.789 35.5646 129.587 36.3576 131.483 36.4256C133.38 36.4935 135.23 35.8312 136.653 34.5752C138.076 33.3192 138.962 31.5651 139.13 29.6748C139.13 29.4748 139.13 29.0848 139.13 28.9548H134.54C134.293 28.9549 134.056 28.858 133.88 28.6848C133.705 28.4874 133.609 28.2331 133.609 27.9698C133.609 27.7064 133.705 27.4521 133.88 27.2548C133.968 27.1662 134.075 27.0986 134.192 27.0571C134.31 27.0155 134.436 27.001 134.56 27.0148Z" fill="white"/>
<path d="M112.2 32.1055H107.91C107.91 32.3887 107.966 32.6691 108.075 32.9306C108.183 33.1921 108.343 33.4295 108.543 33.6293C108.744 33.8291 108.982 33.9872 109.244 34.0947C109.506 34.2021 109.787 34.2568 110.07 34.2555H112.24V36.4555C112.805 36.4555 113.348 36.2331 113.75 35.8364C114.152 35.4397 114.382 34.9005 114.39 34.3355V32.1055H112.2Z" fill="white"/>
<path d="M143.601 24.3955C142.903 24.3955 142.234 24.6726 141.741 25.1658C141.248 25.659 140.971 26.328 140.971 27.0255H146.261C146.948 27.0257 147.608 26.7568 148.099 26.2765C148.591 25.7962 148.875 25.1426 148.891 24.4555H143.601V24.3955Z" fill="white"/>
<path d="M82.9907 18.2453C82.9957 18.4818 82.9653 18.7177 82.9007 18.9453C82.8503 19.1297 82.754 19.2983 82.6207 19.4353C82.4935 19.566 82.3352 19.6623 82.1607 19.7153C81.9437 19.7822 81.7178 19.8159 81.4907 19.8153H80.9707V20.5153H81.4907C81.8137 20.5215 82.1353 20.4707 82.4407 20.3653C82.703 20.266 82.9415 20.1127 83.1407 19.9153C83.329 19.7125 83.4692 19.4698 83.5507 19.2053C83.6565 18.8829 83.7039 18.5443 83.6907 18.2053V15.9053H82.9907V18.2453Z" fill="white"/>
<path d="M83.3179 13.6385L82.6709 14.2783L83.3178 14.9325L83.9648 14.2926L83.3179 13.6385Z" fill="white"/>
<path d="M85.5205 13.0947H84.8105V18.4347H85.5205V13.0947Z" fill="white"/>
<path d="M108.261 13.0708L107.617 13.7139L108.267 14.3649L108.911 13.7218L108.261 13.0708Z" fill="white"/>
<path d="M120.343 13.1961L119.7 13.8398L120.351 14.4902L120.994 13.8465L120.343 13.1961Z" fill="white"/>
<path d="M121.14 16.4552L121.07 16.0752C121.07 15.9552 121.02 15.8452 121.01 15.7552C121 15.6652 121.01 15.5752 121.01 15.5152C121.008 15.4752 121.008 15.4351 121.01 15.3952L120.33 15.5952C120.338 15.6482 120.338 15.7021 120.33 15.7552C120.33 15.8252 120.33 15.9052 120.33 15.9952C120.337 16.0917 120.337 16.1886 120.33 16.2852C120.33 16.3852 120.33 16.4852 120.33 16.5752C120.33 16.6652 120.33 16.7652 120.33 16.8452C120.334 16.9151 120.334 16.9852 120.33 17.0552C120.336 17.1833 120.308 17.3107 120.25 17.4252C120.206 17.5076 120.145 17.5794 120.07 17.6352C120.006 17.6748 119.935 17.702 119.86 17.7152H119.71H118.71C118.511 17.7261 118.314 17.6698 118.15 17.5552C118.086 17.489 118.037 17.4106 118.004 17.3246C117.971 17.2387 117.956 17.147 117.96 17.0552V15.9152H117.25V17.0752C117.252 17.1816 117.232 17.2873 117.19 17.3852C117.158 17.4607 117.11 17.5288 117.05 17.5852C116.993 17.6371 116.925 17.6747 116.85 17.6952C116.781 17.7094 116.709 17.7094 116.64 17.6952C116.439 17.7133 116.238 17.6524 116.08 17.5252C116.015 17.4543 115.965 17.3705 115.934 17.2792C115.903 17.1879 115.892 17.0912 115.9 16.9952V15.9152H115.2V17.0552C115.207 17.1759 115.183 17.2965 115.13 17.4052C115.094 17.4865 115.039 17.5584 114.97 17.6152C114.914 17.6588 114.849 17.6896 114.78 17.7052H114.61C114.413 17.7134 114.219 17.6533 114.06 17.5352C113.936 17.3879 113.875 17.1973 113.89 17.0052V15.9152H113.18V17.0552C113.192 17.1481 113.192 17.2422 113.18 17.3352C113.166 17.4178 113.128 17.4944 113.07 17.5552C113.008 17.6196 112.928 17.6647 112.84 17.6852C112.711 17.7038 112.58 17.7038 112.45 17.6852H111.45C111.387 17.6942 111.323 17.6942 111.26 17.6852C111.188 17.6549 111.121 17.6145 111.06 17.5652C110.998 17.509 110.953 17.4361 110.93 17.3552L111.37 17.0752L111.56 16.9552L111.46 16.3252L110.14 15.8352L109.5 15.5952L109.07 15.4552L108.76 15.3552L108.57 15.2952H108.4C107.79 15.2952 107.4 15.6652 107.19 16.4052L107.88 16.5852C107.9 16.4689 107.941 16.3572 108 16.2552C108.027 16.1877 108.072 16.129 108.13 16.0852C108.166 16.0506 108.211 16.0264 108.26 16.0152H108.4C108.496 16.031 108.59 16.0578 108.68 16.0952L109.2 16.2652L109.86 16.5152L110.58 16.7952L109.97 17.1252C109.74 17.2352 109.49 17.3452 109.23 17.4452C108.959 17.5449 108.682 17.6284 108.4 17.6952C108.121 17.758 107.836 17.7915 107.55 17.7952H106.55H106.23C106.108 17.7733 105.99 17.7329 105.88 17.6752C105.76 17.6066 105.652 17.5188 105.56 17.4152C105.459 17.2802 105.385 17.1276 105.34 16.9652C105.316 16.8929 105.296 16.8195 105.28 16.7452C105.28 16.6552 105.28 16.5652 105.21 16.4652C105.14 16.3652 105.16 16.2552 105.14 16.1552C105.12 16.0552 105.14 15.9552 105.06 15.8652C104.98 15.7752 105.06 15.6852 105.06 15.6152V15.4652C105.06 15.3152 104.99 15.1452 104.94 14.9452C104.89 14.7452 104.84 14.5352 104.78 14.2852L104.07 14.3352L104.14 14.7452C103.595 14.88 103.095 15.1559 102.69 15.5452C102.513 15.71 102.379 15.9161 102.3 16.1452C102.242 16.3161 102.208 16.4946 102.2 16.6752C102.205 16.9714 102.288 17.261 102.44 17.5152C102.552 17.6771 102.704 17.8079 102.88 17.8952C102.993 17.959 103.114 18.0061 103.24 18.0352C103.36 18.0499 103.481 18.0499 103.6 18.0352C103.71 18.0459 103.82 18.0459 103.93 18.0352C104.027 18.0223 104.121 17.9953 104.21 17.9552C104.344 17.8992 104.472 17.8287 104.59 17.7452C104.698 17.6639 104.793 17.566 104.87 17.4552C105.024 17.7584 105.264 18.009 105.56 18.1752C105.868 18.3403 106.211 18.4262 106.56 18.4252H107.61C107.861 18.4251 108.112 18.405 108.36 18.3652C108.604 18.325 108.844 18.2682 109.08 18.1952C109.314 18.1239 109.545 18.0405 109.77 17.9452L110.39 17.6652C110.46 17.8406 110.574 17.9954 110.72 18.1152C110.845 18.2168 110.987 18.2947 111.14 18.3452C111.307 18.4031 111.483 18.4302 111.66 18.4252H112.58C112.965 18.4504 113.346 18.3329 113.65 18.0952C113.65 18.0952 113.65 18.0952 113.65 18.0352C113.782 18.1637 113.939 18.2644 114.111 18.3314C114.282 18.3983 114.466 18.4302 114.65 18.4252C114.818 18.4209 114.984 18.387 115.14 18.3252C115.303 18.2559 115.449 18.1538 115.57 18.0252C115.714 18.1643 115.885 18.2719 116.073 18.3408C116.261 18.4097 116.461 18.4384 116.66 18.4252C116.83 18.4287 117 18.4016 117.16 18.3452C117.314 18.2839 117.453 18.192 117.57 18.0752L117.63 18.0152C117.759 18.1552 117.921 18.2616 118.1 18.3252C118.302 18.397 118.516 18.4309 118.73 18.4252H119.73C119.89 18.4279 120.05 18.4008 120.2 18.3452C120.359 18.2917 120.505 18.2067 120.63 18.0952C120.757 17.9723 120.859 17.8263 120.93 17.6652C121.015 17.4697 121.056 17.2581 121.05 17.0452C121.059 16.9487 121.059 16.8516 121.05 16.7552C121.17 16.6552 121.15 16.5452 121.14 16.4552ZM104.47 16.6352C104.452 16.7923 104.391 16.9415 104.294 17.0666C104.197 17.1917 104.068 17.288 103.92 17.3452H103.76H103.57C103.504 17.355 103.437 17.355 103.37 17.3452C103.306 17.3351 103.244 17.3112 103.19 17.2752C103.113 17.2327 103.045 17.1748 102.99 17.1052C102.928 17.0318 102.889 16.941 102.88 16.8452C102.875 16.7953 102.875 16.745 102.88 16.6952C102.865 16.5991 102.865 16.5012 102.88 16.4052C102.941 16.2571 103.033 16.124 103.15 16.0152C103.29 15.8831 103.448 15.772 103.62 15.6852C103.828 15.5771 104.045 15.49 104.27 15.4252L104.42 16.0652C104.42 16.0652 104.42 16.1552 104.42 16.2252C104.424 16.2751 104.424 16.3252 104.42 16.3752C104.442 16.4507 104.458 16.5275 104.47 16.6052V16.6352Z" fill="white"/>
<path d="M129.44 14.9752L128.83 14.3652L128.25 14.9752L128.84 15.5752L129.44 14.9752Z" fill="white"/>
<path d="M128.01 14.9655L127.4 14.3555L126.82 14.9655L127.41 15.5655L128.01 14.9655Z" fill="white"/>
<path d="M134.638 12.2323L133.995 12.876L134.646 13.5263L135.289 12.8826L134.638 12.2323Z" fill="white"/>
<path d="M135.63 14.9046C135.512 14.7354 135.354 14.5979 135.17 14.5046C135 14.4235 134.814 14.3772 134.625 14.3687C134.437 14.3601 134.248 14.3893 134.07 14.4546C133.905 14.5237 133.755 14.6258 133.63 14.7546C133.499 14.885 133.397 15.0418 133.33 15.2146C133.259 15.3996 133.221 15.5962 133.22 15.7946C133.222 16.0531 133.288 16.3072 133.41 16.5346C133.463 16.6168 133.527 16.6909 133.6 16.7546C133.666 16.8111 133.736 16.8613 133.81 16.9046L134.06 17.0146L134.32 17.0746H134.57H135.36C135.348 17.1434 135.328 17.2105 135.3 17.2746C135.254 17.3554 135.189 17.4239 135.11 17.4746C134.986 17.5448 134.851 17.5954 134.71 17.6246C134.487 17.6696 134.259 17.6897 134.03 17.6846H132.45H132.29C132.21 17.6751 132.132 17.6514 132.06 17.6146C131.977 17.5718 131.905 17.5102 131.85 17.4346C131.776 17.3377 131.74 17.2165 131.75 17.0946V15.8446H131.05V17.1446C131.059 17.211 131.059 17.2782 131.05 17.3446C131.036 17.4184 130.997 17.4852 130.94 17.5346C130.872 17.5991 130.79 17.647 130.7 17.6746C130.558 17.7191 130.409 17.7394 130.26 17.7346H125.97H125.81C125.731 17.7224 125.656 17.6915 125.59 17.6446C125.513 17.5873 125.451 17.5117 125.41 17.4246C125.348 17.3082 125.32 17.1763 125.33 17.0446C125.322 16.9448 125.322 16.8444 125.33 16.7446L125.39 16.4146C125.39 16.3046 125.45 16.2046 125.47 16.1046C125.49 16.0046 125.47 15.9346 125.54 15.8846L124.86 15.6746C124.864 15.7346 124.864 15.7947 124.86 15.8546C124.824 15.9696 124.794 16.0865 124.77 16.2046C124.77 16.3313 124.74 16.4713 124.68 16.6246C124.672 16.7645 124.672 16.9048 124.68 17.0446C124.669 17.1677 124.669 17.2915 124.68 17.4146C124.706 17.517 124.74 17.6173 124.78 17.7146C124.823 17.7939 124.869 17.8707 124.92 17.9446C124.965 18.0025 125.016 18.0561 125.07 18.1046C125.19 18.2209 125.333 18.3097 125.49 18.3646C125.65 18.426 125.82 18.4565 125.99 18.4546H130.24C130.449 18.469 130.659 18.441 130.856 18.3723C131.054 18.3035 131.236 18.1955 131.39 18.0546V18.1046C131.518 18.2083 131.664 18.2864 131.82 18.3346C131.963 18.3781 132.111 18.4017 132.26 18.4046H133.92C134.42 18.4367 134.918 18.3294 135.36 18.0946C135.551 17.9828 135.707 17.82 135.81 17.6246C135.911 17.4195 135.959 17.1928 135.95 16.9646V16.4546C135.954 16.1489 135.924 15.8438 135.86 15.5446C135.821 15.3197 135.743 15.1033 135.63 14.9046ZM134.75 16.4546C134.627 16.4658 134.504 16.4658 134.38 16.4546C134.287 16.4368 134.196 16.4065 134.11 16.3646L134.03 16.3046L133.94 16.2146C133.909 16.176 133.886 16.1319 133.87 16.0846C133.865 16.0147 133.865 15.9445 133.87 15.8746C133.864 15.7699 133.881 15.6651 133.921 15.568C133.961 15.471 134.022 15.3843 134.1 15.3146C134.169 15.2582 134.247 15.2142 134.33 15.1846C134.417 15.1708 134.504 15.1708 134.59 15.1846C134.686 15.1814 134.78 15.2015 134.865 15.2434C134.951 15.2853 135.025 15.3475 135.08 15.4246C135.169 15.5628 135.233 15.715 135.27 15.8746C135.321 16.0877 135.348 16.3057 135.35 16.5246L134.75 16.4546Z" fill="white"/>
<path d="M138.82 19.8754L139.4 20.4754L140.01 19.8754L139.41 19.2754L138.82 19.8754Z" fill="white"/>
<path d="M140.25 19.8646L140.83 20.4746L141.44 19.8646L140.84 19.2646L140.25 19.8646Z" fill="white"/>
<path d="M140.97 18.1047C141.097 17.9819 141.199 17.8359 141.27 17.6747C141.355 17.4793 141.396 17.2677 141.39 17.0547C141.39 16.9747 141.39 16.8747 141.39 16.7647C141.39 16.6547 141.39 16.5447 141.39 16.4247L141.33 16.0747C141.33 15.9547 141.33 15.8447 141.27 15.7547C141.21 15.6647 141.27 15.5747 141.27 15.5147C141.268 15.4748 141.268 15.4347 141.27 15.3947L140.59 15.5947C140.598 15.6478 140.598 15.7017 140.59 15.7547C140.59 15.8247 140.59 15.9047 140.59 15.9947C140.597 16.0913 140.597 16.1882 140.59 16.2847C140.59 16.3847 140.59 16.4847 140.59 16.5747C140.59 16.6647 140.59 16.7647 140.59 16.8447C140.594 16.9147 140.594 16.9848 140.59 17.0547C140.596 17.1829 140.568 17.3103 140.51 17.4247C140.467 17.5072 140.405 17.5789 140.33 17.6347C140.266 17.6744 140.195 17.7015 140.12 17.7147H139.97H138.57C138.394 17.7301 138.217 17.7301 138.04 17.7147C137.989 17.7087 137.94 17.6923 137.895 17.6665C137.85 17.6407 137.811 17.6061 137.78 17.5647C137.711 17.476 137.672 17.3672 137.67 17.2547C137.659 17.0783 137.659 16.9012 137.67 16.7247V13.0947H137.07V16.6947C137.07 16.8947 137.07 17.0747 137.07 17.2247C137.08 17.374 137.107 17.5217 137.15 17.6647C137.183 17.7836 137.237 17.8955 137.31 17.9947C137.388 18.0954 137.487 18.1774 137.6 18.2347C137.734 18.31 137.879 18.3608 138.03 18.3847C138.192 18.4133 138.356 18.43 138.52 18.4347H140.07C140.231 18.4375 140.39 18.4104 140.54 18.3547C140.699 18.3013 140.845 18.2162 140.97 18.1047Z" fill="white"/>
<path d="M143.98 18.2453C143.985 18.4818 143.955 18.7177 143.89 18.9453C143.84 19.1297 143.743 19.2983 143.61 19.4353C143.483 19.566 143.324 19.6623 143.15 19.7153C142.933 19.7822 142.707 19.8159 142.48 19.8153H141.96V20.5153H142.48C142.82 20.5275 143.159 20.4767 143.48 20.3653C143.742 20.266 143.981 20.1127 144.18 19.9153C144.368 19.7125 144.508 19.4698 144.59 19.2053C144.696 18.8829 144.743 18.5443 144.73 18.2053V15.9053H144.03L143.98 18.2453Z" fill="white"/>
<path d="M148.801 17.1754C148.771 17.0683 148.731 16.9644 148.681 16.8654C148.636 16.759 148.579 16.6583 148.511 16.5654L148.101 15.9354L147.781 15.4654L147.551 15.1154L147.391 14.8654L147.261 14.6754L147.161 14.5254L146.561 14.9154L147.921 16.9154C147.983 17.0102 148.037 17.1106 148.081 17.2154C148.088 17.2752 148.088 17.3356 148.081 17.3954C148.085 17.4218 148.085 17.4489 148.081 17.4754C148.036 17.5389 147.973 17.5877 147.901 17.6154C147.784 17.6612 147.664 17.6947 147.541 17.7154H147.241H147.071H146.701L146.301 17.6454C146.188 17.6228 146.08 17.5823 145.981 17.5254L145.661 17.3454L145.311 17.9654L145.621 18.1454L145.931 18.2854C146.048 18.3259 146.168 18.356 146.291 18.3754C146.417 18.3858 146.544 18.3858 146.671 18.3754C146.797 18.3851 146.924 18.3851 147.051 18.3754H147.361H147.631C147.853 18.3712 148.071 18.309 148.262 18.195C148.453 18.081 148.611 17.9191 148.721 17.7254C148.759 17.6499 148.786 17.569 148.801 17.4854V17.4554C148.81 17.3623 148.81 17.2685 148.801 17.1754Z" fill="white"/>
<path d="M89.5705 12.0047C89.5103 12.0016 89.45 12.0106 89.3933 12.0312C89.3366 12.0518 89.2846 12.0836 89.2405 12.1247C89.1677 12.2114 89.1286 12.3215 89.1305 12.4347C89.1273 12.4924 89.1367 12.5502 89.1579 12.6039C89.1792 12.6577 89.2119 12.7062 89.2537 12.7461C89.2955 12.786 89.3455 12.8164 89.4002 12.8352C89.4549 12.8539 89.513 12.8606 89.5705 12.8547C89.6309 12.8597 89.6917 12.8516 89.7486 12.8309C89.8056 12.8101 89.8574 12.7773 89.9005 12.7347C89.9466 12.7022 89.9854 12.6606 90.0147 12.6124C90.0439 12.5643 90.0629 12.5106 90.0705 12.4547C90.0721 12.3977 90.0623 12.3409 90.0417 12.2877C90.0211 12.2344 89.9901 12.1858 89.9505 12.1447C89.9041 12.0912 89.8449 12.0504 89.7785 12.0259C89.712 12.0014 89.6405 11.9941 89.5705 12.0047Z" fill="white"/>
<path d="M89.9402 13.585H89.2002V17.935H89.9402V13.585Z" fill="white"/>
<path d="M92.9108 13.505C92.5576 13.5015 92.2108 13.5986 91.9108 13.785C91.6017 13.97 91.3572 14.2459 91.2108 14.575C91.0347 14.9325 90.9457 15.3265 90.9508 15.725V15.775C90.9061 16.3821 91.0957 16.9834 91.4808 17.455C91.6617 17.6556 91.8844 17.8142 92.1331 17.9196C92.3819 18.025 92.6508 18.0746 92.9208 18.065C93.2734 18.0648 93.6193 17.9679 93.9208 17.785C94.22 17.5956 94.4593 17.3251 94.6108 17.005C94.7825 16.6499 94.8682 16.2593 94.8608 15.865V15.755C94.8871 15.1621 94.6909 14.5807 94.3108 14.125C94.1352 13.9277 93.9194 13.7703 93.6779 13.6633C93.4364 13.5564 93.1749 13.5024 92.9108 13.505ZM93.8208 16.965C93.7154 17.1038 93.5793 17.2164 93.4231 17.2939C93.267 17.3713 93.0951 17.4117 92.9208 17.4117C92.7465 17.4117 92.5745 17.3713 92.4184 17.2939C92.2623 17.2164 92.1262 17.1038 92.0208 16.965C91.7786 16.6283 91.6586 16.2191 91.6808 15.805C91.6714 15.357 91.8083 14.9181 92.0708 14.555C92.1751 14.4163 92.3103 14.3037 92.4656 14.2262C92.621 14.1487 92.7922 14.1083 92.9658 14.1083C93.1394 14.1083 93.3106 14.1487 93.4659 14.2262C93.6212 14.3037 93.7564 14.4163 93.8608 14.555C94.1029 14.8916 94.2229 15.3009 94.2008 15.715C94.2176 16.1624 94.0838 16.6026 93.8208 16.965Z" fill="white"/>
<path d="M98.4305 15.7253C98.1449 15.5864 97.8423 15.4855 97.5305 15.4253C97.2612 15.3819 97.001 15.2941 96.7605 15.1653C96.69 15.1235 96.6322 15.0632 96.5934 14.9909C96.5546 14.9187 96.5363 14.8372 96.5405 14.7553C96.5393 14.6658 96.5596 14.5774 96.5996 14.4973C96.6396 14.4173 96.6982 14.348 96.7705 14.2953C96.9571 14.1641 97.1829 14.1005 97.4105 14.1153C97.6463 14.1097 97.8766 14.1876 98.0605 14.3353C98.1398 14.3994 98.2042 14.48 98.2491 14.5715C98.294 14.6631 98.3184 14.7633 98.3205 14.8653H99.0705C99.0784 14.6741 99.0408 14.4838 98.9608 14.31C98.8808 14.1361 98.7608 13.9837 98.6105 13.8653C98.2672 13.6023 97.8426 13.4678 97.4105 13.4853C96.992 13.4658 96.5804 13.5971 96.2505 13.8553C96.1103 13.9619 95.9967 14.0996 95.9186 14.2574C95.8405 14.4153 95.8001 14.5892 95.8005 14.7653C95.794 14.961 95.85 15.1537 95.9605 15.3153C96.0844 15.4907 96.2538 15.629 96.4505 15.7153C96.7355 15.8535 97.0384 15.9511 97.3505 16.0053C97.6299 16.0507 97.8981 16.1491 98.1405 16.2953C98.213 16.3495 98.271 16.4207 98.3094 16.5027C98.3478 16.5847 98.3653 16.6749 98.3605 16.7653C98.3622 16.8571 98.3401 16.9477 98.2963 17.0283C98.2524 17.109 98.1884 17.1768 98.1105 17.2253C97.9049 17.3462 97.6688 17.4052 97.4305 17.3953C97.1664 17.4047 96.9065 17.3275 96.6905 17.1753C96.6015 17.1017 96.5288 17.0103 96.4772 16.907C96.4255 16.8036 96.396 16.6907 96.3905 16.5753H95.6505C95.6469 16.8339 95.7276 17.0867 95.8805 17.2953C96.0346 17.527 96.2538 17.7079 96.5105 17.8153C96.8006 17.941 97.1144 18.0024 97.4305 17.9953C97.8618 18.0188 98.2884 17.8954 98.6405 17.6453C98.7896 17.5412 98.9106 17.4018 98.9926 17.2395C99.0746 17.0772 99.1151 16.8971 99.1105 16.7153C99.1153 16.5028 99.0561 16.2937 98.9405 16.1153C98.8067 15.9438 98.6311 15.8095 98.4305 15.7253Z" fill="white"/>
<defs>
<linearGradient id="paint0_linear_3040_22776" x1="60.0205" y1="17.4746" x2="64.3905" y2="17.4746" gradientUnits="userSpaceOnUse">
<stop stop-color="#1767E6"/>
<stop offset="0.64" stop-color="#14BBF2"/>
</linearGradient>
<linearGradient id="paint1_linear_3040_22776" x1="55.76" y1="35.4853" x2="67.55" y2="9.34527" gradientUnits="userSpaceOnUse">
<stop stop-color="#1767E6"/>
<stop offset="0.64" stop-color="#14BBF2"/>
</linearGradient>
</defs>
</svg>
