<svg width="113" height="39" viewBox="0 0 113 39" fill="none" xmlns="http://www.w3.org/2000/svg">
<path d="M2.18033 32.2657C2.10494 32.2988 2.01598 32.3379 1.91345 32.3831C1.81091 32.4283 1.70386 32.4809 1.59228 32.5412C1.4807 32.5984 1.37062 32.6631 1.26206 32.7353C1.1535 32.8046 1.05549 32.8813 0.968032 32.9656C0.883593 33.0469 0.814232 33.1357 0.75995 33.2321C0.708683 33.3254 0.683051 33.4263 0.683051 33.5346C0.683051 33.646 0.713207 33.7379 0.77352 33.8101C0.83685 33.8824 0.918273 33.9411 1.01779 33.9862C1.11731 34.0284 1.2304 34.0585 1.35705 34.0765C1.48371 34.0916 1.61339 34.0991 1.74608 34.0991C1.8848 34.0991 2.02804 34.0916 2.17581 34.0765C2.32358 34.0585 2.45325 34.0389 2.56483 34.0178C2.52261 33.8101 2.47888 33.5557 2.43365 33.2547C2.39143 32.9506 2.34619 32.6059 2.29794 32.2205L2.18033 32.2657ZM1.77322 34.7946C1.52593 34.7946 1.29372 34.775 1.0766 34.7359C0.862483 34.6937 0.675511 34.626 0.51568 34.5326C0.35585 34.4363 0.229192 34.3129 0.135706 34.1623C0.0452354 34.0088 0 33.8206 0 33.5979C0 33.3992 0.0422193 33.214 0.126658 33.0424C0.211097 32.8708 0.321169 32.7128 0.456875 32.5682C0.59258 32.4207 0.743364 32.2883 0.909226 32.1709C1.0781 32.0504 1.24397 31.9466 1.40681 31.8593C1.56966 31.7689 1.72195 31.6937 1.86369 31.6335C2.00542 31.5702 2.12002 31.5236 2.20747 31.4935L2.13962 30.8387L2.84981 30.6851C2.85283 30.7092 2.85886 30.7619 2.86791 30.8432C2.87695 30.9245 2.886 31.0193 2.89505 31.1277C2.90711 31.2361 2.91917 31.3505 2.93124 31.4709C2.94631 31.5913 2.95838 31.7057 2.96742 31.8141C2.97949 31.9225 2.99004 32.0158 2.99909 32.0941C3.00814 32.1724 3.01417 32.222 3.01718 32.2431C3.06543 32.6375 3.10916 32.9596 3.14836 33.2095C3.19058 33.4594 3.22677 33.6581 3.25693 33.8056C3.28709 33.9531 3.31121 34.06 3.3293 34.1262C3.35041 34.1894 3.36549 34.2316 3.37454 34.2527V34.2481C3.41374 34.3415 3.45898 34.4182 3.51025 34.4785C3.56151 34.5387 3.62183 34.5868 3.69119 34.623C3.76356 34.6591 3.84499 34.6847 3.93546 34.6997C4.02593 34.7148 4.12846 34.7223 4.24305 34.7223H4.33352V35.4268H4.24305C4.12846 35.4268 3.99577 35.4177 3.84498 35.3997C3.6942 35.3816 3.54492 35.338 3.39716 35.2687H3.40168C3.17249 35.1634 2.97496 34.9737 2.8091 34.6997C2.40199 34.7629 2.05669 34.7946 1.77322 34.7946Z" fill="black"/>
<path d="M8.43343 34.7223V35.4268H4.14967V34.7223H8.43343Z" fill="black"/>
<path d="M12.5382 34.7223V35.4268H8.2544V34.7223H12.5382Z" fill="black"/>
<path d="M12.3591 34.7223H12.8839C13.0648 34.7223 13.2307 34.7163 13.3814 34.7042C13.5352 34.6922 13.674 34.6666 13.7976 34.6275C13.9243 34.5853 14.0359 34.5266 14.1324 34.4514C14.2319 34.3761 14.3193 34.2737 14.3947 34.1443C14.44 34.069 14.4656 33.9742 14.4716 33.8598C14.4746 33.8297 14.4761 33.8011 14.4761 33.774C14.4761 33.6837 14.4671 33.5798 14.449 33.4624C14.4309 33.342 14.4007 33.2065 14.3585 33.056C14.3163 32.9054 14.2696 32.7564 14.2183 32.6089C14.17 32.4584 14.1173 32.3139 14.06 32.1754C14.0057 32.0339 13.9559 31.9044 13.9107 31.787L14.5485 31.4664C14.6058 31.6049 14.6661 31.7554 14.7295 31.918C14.7958 32.0775 14.8576 32.2431 14.9149 32.4147C14.9722 32.5863 15.0235 32.7624 15.0687 32.9431C15.114 33.1207 15.1456 33.2953 15.1637 33.4669C15.1728 33.5602 15.1773 33.6521 15.1773 33.7424C15.1773 33.8176 15.1713 33.9155 15.1592 34.0359C15.1501 34.1533 15.114 34.2828 15.0506 34.4243C14.9632 34.6169 14.8561 34.778 14.7295 34.9075C14.6058 35.0369 14.4611 35.1408 14.2952 35.2191C14.1293 35.2943 13.9439 35.3485 13.7388 35.3816C13.5368 35.4117 13.3166 35.4268 13.0784 35.4268H12.3591V34.7223ZM14.4671 29.8452L13.8021 30.509L13.1372 29.8452L13.8021 29.1814L14.4671 29.8452Z" fill="black"/>
<path d="M18.5439 35.4268C18.2694 35.4268 18.0237 35.3982 17.8065 35.341C17.5894 35.2808 17.4055 35.1859 17.2547 35.0565C17.1039 34.927 16.9878 34.7599 16.9064 34.5552C16.828 34.3475 16.7887 34.0961 16.7887 33.8011C16.7887 33.5783 16.7887 33.3299 16.7887 33.056C16.7918 32.782 16.7933 32.4975 16.7933 32.2025C16.7933 31.9074 16.7903 31.6079 16.7842 31.3038C16.7812 30.9997 16.7752 30.7047 16.7661 30.4187C16.7571 30.1297 16.7435 29.8572 16.7254 29.6013C16.7073 29.3454 16.6847 29.1166 16.6576 28.9149L17.3632 28.7885C17.3904 28.948 17.413 29.1362 17.4311 29.353C17.4492 29.5697 17.4643 29.803 17.4763 30.0529C17.4884 30.3028 17.4959 30.5632 17.4989 30.8342C17.505 31.1021 17.508 31.3655 17.508 31.6244C17.508 31.9947 17.5095 32.3515 17.5125 32.6947C17.5125 32.8091 17.5125 32.925 17.5125 33.0424C17.5125 33.2712 17.511 33.5 17.508 33.7288C17.508 33.9245 17.5231 34.0856 17.5532 34.212C17.5864 34.3385 17.6407 34.4408 17.7161 34.5191C17.7945 34.5944 17.897 34.647 18.0237 34.6771C18.1503 34.7073 18.3102 34.7223 18.5032 34.7223H18.6343V35.4268H18.5439Z" fill="black"/>
<path d="M22.739 34.7223V35.4268H18.4553V34.7223H22.739Z" fill="black"/>
<path d="M26.8438 34.7223V35.4268H22.56V34.7223H26.8438Z" fill="black"/>
<path d="M30.6997 34.7223V35.4268H30.6092C30.3197 35.4268 30.074 35.3711 29.8719 35.2597C29.6699 35.1453 29.4995 34.9993 29.3608 34.8217C29.2582 34.924 29.1436 35.0128 29.017 35.0881C28.8933 35.1634 28.7501 35.2266 28.5872 35.2778C28.4274 35.3259 28.245 35.3636 28.0399 35.3907C27.8378 35.4147 27.6056 35.4268 27.3433 35.4268H26.6647V34.7223H27.3433C27.6509 34.7223 27.9117 34.6982 28.1258 34.6501C28.343 34.5989 28.5179 34.5251 28.6506 34.4288C28.7863 34.3294 28.8843 34.2075 28.9446 34.063C29.0049 33.9155 29.0351 33.7439 29.0351 33.5482C29.0351 33.3856 29.023 33.22 28.9989 33.0514C28.9778 32.8829 28.9371 32.6917 28.8767 32.4779C29.0034 32.4448 29.118 32.4132 29.2205 32.3831C29.3261 32.35 29.4377 32.3169 29.5553 32.2837C29.5794 32.3741 29.6005 32.4659 29.6186 32.5592C29.6367 32.6495 29.6518 32.7459 29.6638 32.8482C29.6789 32.9476 29.6925 33.0575 29.7045 33.1779C29.7166 33.2983 29.7287 33.4323 29.7407 33.5798C29.7498 33.7002 29.7679 33.8282 29.795 33.9636C29.8222 34.0961 29.8674 34.2195 29.9307 34.3339C29.994 34.4453 30.08 34.5387 30.1886 34.6139C30.2971 34.6862 30.4374 34.7223 30.6092 34.7223H30.6997ZM28.2842 36.9938L27.6237 37.6531L26.9542 36.9893L27.6147 36.3254L28.2842 36.9938ZM29.89 37.0028L29.2341 37.6621L28.5646 36.9938L29.225 36.3345L29.89 37.0028Z" fill="black"/>
<path d="M30.6059 34.7223C30.8713 34.7223 31.096 34.6802 31.2799 34.5959C31.4669 34.5086 31.6283 34.3942 31.764 34.2527C31.8997 34.1112 32.0173 33.9501 32.1168 33.7695C32.2193 33.5858 32.3188 33.3977 32.4153 33.205C32.4938 33.0424 32.5707 32.8889 32.646 32.7444C32.7245 32.5968 32.8119 32.4659 32.9084 32.3515C33.1647 32.0414 33.4708 31.8864 33.8267 31.8864C34.2519 31.8864 34.6077 32.058 34.8942 32.4012C35.0058 32.5366 35.0963 32.6947 35.1656 32.8753C35.235 33.0529 35.2832 33.2396 35.3104 33.4353C35.3255 33.5557 35.333 33.6746 35.333 33.792C35.333 33.8703 35.3255 33.9787 35.3104 34.1172C35.2983 34.2557 35.2591 34.4077 35.1928 34.5733C35.1114 34.772 35.0028 34.9391 34.8671 35.0745C34.7314 35.207 34.5776 35.2958 34.4057 35.341C34.3001 35.3681 34.1855 35.3816 34.0619 35.3816C33.8357 35.3816 33.5869 35.3274 33.3155 35.2191C33.029 35.1046 32.7094 34.9195 32.3565 34.6636C32.254 34.8021 32.1364 34.9195 32.0037 35.0158C31.871 35.1122 31.7278 35.192 31.574 35.2552C31.4232 35.3154 31.2664 35.359 31.1035 35.3861C30.9407 35.4132 30.7763 35.4268 30.6105 35.4268H30.5155V34.7223H30.6059ZM32.7682 34.0765C32.8979 34.1729 33.029 34.2587 33.1617 34.3339C33.2974 34.4062 33.4271 34.4679 33.5507 34.5191C33.6774 34.5703 33.795 34.6094 33.9036 34.6365C34.0152 34.6636 34.1102 34.6771 34.1886 34.6771C34.2187 34.6771 34.2474 34.6756 34.2745 34.6726C34.3016 34.6696 34.3303 34.6636 34.3605 34.6546C34.4509 34.6245 34.5233 34.5552 34.5776 34.4468C34.6349 34.3354 34.6726 34.206 34.6907 34.0585C34.6997 33.9892 34.7042 33.9185 34.7042 33.8462C34.7042 33.7649 34.6952 33.6611 34.6771 33.5346C34.659 33.4082 34.6153 33.2742 34.5459 33.1327C34.4766 32.9912 34.3816 32.8708 34.2609 32.7715C34.1433 32.6721 33.9986 32.6149 33.8267 32.5999C33.8146 32.5999 33.8041 32.5999 33.795 32.5999C33.7317 32.5999 33.6714 32.6164 33.6141 32.6495C33.5598 32.6826 33.5025 32.7383 33.4422 32.8166C33.3849 32.8919 33.3246 32.9882 33.2612 33.1056C33.1979 33.223 33.127 33.36 33.0486 33.5166L32.7682 34.0765Z" fill="black"/>
<path d="M38.0549 32.6947C38.1032 32.8512 38.1574 33.0289 38.2178 33.2276C38.2811 33.4232 38.3399 33.628 38.3942 33.8417C38.4485 34.0525 38.4937 34.2677 38.5299 34.4875C38.5691 34.7042 38.5887 34.912 38.5887 35.1107C38.5887 35.3605 38.551 35.6044 38.4756 35.8422C38.4032 36.0801 38.3022 36.3074 38.1725 36.5241C38.0428 36.7439 37.8875 36.9531 37.7066 37.1518C37.5287 37.3535 37.3342 37.5432 37.1231 37.7208C36.912 37.8985 36.6873 38.0625 36.4491 38.2131C36.2138 38.3666 35.9741 38.5051 35.7298 38.6285L35.4177 37.9963C35.7343 37.8337 36.0404 37.6471 36.336 37.4363C36.6315 37.2286 36.8939 37.0013 37.1231 36.7544C37.3523 36.5106 37.5362 36.2502 37.6749 35.9732C37.8137 35.6962 37.883 35.4087 37.883 35.1107C37.883 34.9481 37.8664 34.775 37.8333 34.5913C37.8001 34.4077 37.7579 34.221 37.7066 34.0314C37.6553 33.8387 37.5995 33.6475 37.5392 33.4579C37.4789 33.2682 37.4216 33.0846 37.3673 32.9069L38.0549 32.6947Z" fill="black"/>
<path d="M39.6787 37.8879C40.1371 37.7886 40.5502 37.6501 40.9181 37.4725C41.286 37.2948 41.6012 37.0946 41.8635 36.8719C42.1289 36.6521 42.3385 36.4173 42.4923 36.1674C42.6491 35.9175 42.7456 35.6706 42.7818 35.4268C42.6823 35.4298 42.5843 35.4313 42.4878 35.4313C42.3461 35.4313 42.1832 35.4283 41.9993 35.4223C41.8153 35.4132 41.6208 35.3922 41.4157 35.359C41.2137 35.3229 41.0282 35.2717 40.8593 35.2055C40.6935 35.1363 40.5502 35.0444 40.4296 34.93C40.309 34.8126 40.2155 34.6696 40.1491 34.501C40.0828 34.3324 40.0496 34.1307 40.0496 33.8959C40.0526 33.7514 40.0692 33.5994 40.0994 33.4398C40.1325 33.2772 40.1778 33.1177 40.2351 32.9611C40.2954 32.8046 40.3678 32.6556 40.4522 32.5141C40.5366 32.3695 40.6347 32.2446 40.7462 32.1392C40.8578 32.0309 40.9815 31.9451 41.1172 31.8818C41.2529 31.8156 41.4021 31.7825 41.565 31.7825C41.7882 31.7825 41.9902 31.8322 42.1711 31.9315C42.3521 32.0279 42.5134 32.1573 42.6552 32.3199C42.7999 32.4824 42.9251 32.6706 43.0306 32.8844C43.1362 33.0951 43.2236 33.3164 43.293 33.5482C43.3623 33.777 43.4136 34.0073 43.4468 34.2391C43.4799 34.4709 43.4965 34.6877 43.4965 34.8894C43.4965 35.2296 43.4498 35.5502 43.3563 35.8513C43.2658 36.1523 43.1392 36.4308 42.9763 36.6867C42.8135 36.9456 42.619 37.1789 42.3928 37.3867C42.1666 37.5974 41.9178 37.7825 41.6464 37.9421C41.375 38.1047 41.087 38.2386 40.7824 38.344C40.4778 38.4524 40.1657 38.5322 39.8461 38.5834L39.6787 37.8879ZM41.565 32.4915C41.4534 32.4915 41.3433 32.5366 41.2348 32.627C41.1262 32.7173 41.0282 32.8317 40.9408 32.9702C40.8563 33.1086 40.7869 33.2592 40.7327 33.4217C40.6814 33.5843 40.6558 33.7379 40.6558 33.8824C40.6708 34.0299 40.7176 34.1518 40.796 34.2481C40.8744 34.3445 40.9739 34.4228 41.0946 34.483C41.2152 34.5432 41.3494 34.5883 41.4971 34.6184C41.6479 34.6455 41.8002 34.6651 41.954 34.6771C42.1108 34.6862 42.2631 34.6907 42.4109 34.6907C42.5587 34.6907 42.6913 34.6907 42.809 34.6907C42.809 34.5552 42.7954 34.4077 42.7682 34.2481C42.7441 34.0856 42.7079 33.923 42.6597 33.7604C42.6114 33.5979 42.5511 33.4398 42.4787 33.2863C42.4064 33.1327 42.3234 32.9973 42.2299 32.8798C42.1395 32.7624 42.0385 32.6691 41.9269 32.5999C41.8153 32.5276 41.6947 32.4915 41.565 32.4915Z" fill="black"/>
<path d="M46.9214 35.4268C46.647 35.4268 46.4012 35.3982 46.1841 35.341C45.9669 35.2808 45.783 35.1859 45.6322 35.0565C45.4814 34.927 45.3653 34.7599 45.2839 34.5552C45.2055 34.3475 45.1663 34.0961 45.1663 33.8011C45.1663 33.5783 45.1663 33.3299 45.1663 33.056C45.1693 32.782 45.1708 32.4975 45.1708 32.2025C45.1708 31.9074 45.1678 31.6079 45.1618 31.3038C45.1587 30.9997 45.1527 30.7047 45.1437 30.4187C45.1346 30.1297 45.121 29.8572 45.103 29.6013C45.0849 29.3454 45.0622 29.1166 45.0351 28.9149L45.7408 28.7885C45.7679 28.948 45.7905 29.1362 45.8086 29.353C45.8267 29.5697 45.8418 29.803 45.8538 30.0529C45.8659 30.3028 45.8735 30.5632 45.8765 30.8342C45.8825 31.1021 45.8855 31.3655 45.8855 31.6244C45.8855 31.9947 45.887 32.3515 45.89 32.6947C45.89 32.8091 45.89 32.925 45.89 33.0424C45.89 33.2712 45.8885 33.5 45.8855 33.7288C45.8855 33.9245 45.9006 34.0856 45.9307 34.212C45.9639 34.3385 46.0182 34.4408 46.0936 34.5191C46.172 34.5944 46.2745 34.647 46.4012 34.6771C46.5279 34.7073 46.6877 34.7223 46.8807 34.7223H47.0119V35.4268H46.9214Z" fill="black"/>
<path d="M51.1166 34.7223V35.4268H46.8328V34.7223H51.1166Z" fill="black"/>
<path d="M55.2213 34.7223V35.4268H50.9375V34.7223H55.2213Z" fill="black"/>
<path d="M55.0423 34.7223H56.0239C56.431 34.7223 56.8426 34.6817 57.2588 34.6004C57.675 34.5161 58.0866 34.4062 58.4937 34.2707C58.9038 34.1352 59.3064 33.9802 59.7015 33.8056C60.0996 33.631 60.4841 33.4503 60.855 33.2637L59.507 32.7037C59.3622 32.6435 59.2205 32.5833 59.0818 32.5231C58.9461 32.4599 58.8134 32.4027 58.6837 32.3515C58.557 32.3003 58.4364 32.2597 58.3218 32.2296C58.2072 32.1964 58.1002 32.1799 58.0006 32.1799C57.8861 32.1799 57.7775 32.201 57.675 32.2431C57.5724 32.2822 57.4759 32.3349 57.3854 32.4012C57.298 32.4674 57.2166 32.5412 57.1412 32.6224C57.0658 32.7037 56.9979 32.785 56.9376 32.8663C56.8803 32.9476 56.8291 33.0243 56.7838 33.0966C56.7416 33.1658 56.7084 33.2215 56.6843 33.2637L56.0782 32.9024C56.1113 32.8332 56.1581 32.7489 56.2184 32.6495C56.2817 32.5472 56.3707 32.4268 56.4853 32.2883C56.7114 32.0143 56.9512 31.8096 57.2045 31.6741C57.4608 31.5386 57.7262 31.4709 58.0006 31.4709C58.1424 31.4709 58.2856 31.4875 58.4304 31.5206C58.5781 31.5537 58.7274 31.5973 58.8782 31.6515C59.029 31.7057 59.1813 31.7689 59.3351 31.8412C59.4919 31.9104 59.6502 31.9827 59.8101 32.058C59.985 32.1392 60.1433 32.2175 60.285 32.2928C60.4298 32.365 60.5715 32.4358 60.7102 32.505C60.8489 32.5713 60.9922 32.6375 61.14 32.7037C61.2907 32.77 61.4596 32.8377 61.6466 32.9069C61.6707 33.0394 61.6948 33.1598 61.719 33.2682C61.7431 33.3736 61.7672 33.4895 61.7913 33.6159C61.6858 33.6581 61.5999 33.6942 61.5335 33.7243C61.4702 33.7514 61.4084 33.78 61.348 33.8101C61.2907 33.8372 61.2289 33.8688 61.1626 33.9049C61.0962 33.9381 61.0088 33.9817 60.9002 34.0359C60.5745 34.1955 60.2202 34.358 59.8372 34.5236C59.4542 34.6892 59.0531 34.8397 58.6339 34.9752C58.2178 35.1077 57.7895 35.216 57.3493 35.3003C56.909 35.3846 56.4672 35.4268 56.0239 35.4268H55.0423V34.7223ZM58.6339 29.8L57.969 30.4639L57.304 29.8L57.969 29.1362L58.6339 29.8Z" fill="black"/>
<path d="M76.0507 34.7223V35.4268H75.9602C75.725 35.4268 75.4943 35.4072 75.2681 35.3681C75.045 35.3259 74.8324 35.2597 74.6303 35.1694C74.4283 35.0791 74.2413 34.9616 74.0694 34.8171C73.8975 34.6726 73.7482 34.4965 73.6216 34.2888C73.507 34.4634 73.3607 34.6139 73.1828 34.7404C73.0079 34.8638 72.8134 34.9677 72.5993 35.052C72.3882 35.1363 72.1635 35.204 71.9253 35.2552C71.687 35.3064 71.4488 35.3455 71.2106 35.3726C70.9723 35.3997 70.7401 35.4162 70.5139 35.4223C70.3993 35.4253 70.2893 35.4268 70.1837 35.4268C70.0782 35.4268 69.9771 35.4253 69.8806 35.4223C69.6123 35.4162 69.3288 35.4042 69.0302 35.3861C68.7317 35.3651 68.4346 35.3289 68.1391 35.2778C67.8466 35.2236 67.5646 35.1498 67.2932 35.0565C67.0248 34.9601 66.7881 34.8352 66.583 34.6817C66.3779 34.5281 66.2151 34.34 66.0945 34.1172C65.9738 33.8914 65.9135 33.6219 65.9135 33.3088C65.9135 33.2065 65.9286 33.0876 65.9588 32.9521C65.9889 32.8136 66.0281 32.6751 66.0764 32.5366C66.1276 32.3951 66.1834 32.2597 66.2437 32.1302C66.3071 31.9977 66.3689 31.8833 66.4292 31.787L67.0037 32.207C66.9464 32.3063 66.8936 32.3997 66.8454 32.487C66.8001 32.5743 66.7594 32.6616 66.7232 32.7489C66.6901 32.8332 66.6614 32.9205 66.6373 33.0108C66.6162 33.1011 66.6011 33.199 66.592 33.3043C66.5981 33.5903 66.6886 33.8237 66.8635 34.0043C67.0384 34.1819 67.2736 34.3219 67.5691 34.4243C67.8647 34.5266 68.2115 34.5989 68.6095 34.641C69.0076 34.6802 69.4343 34.7027 69.8897 34.7088C69.9289 34.7088 69.9696 34.7088 70.0118 34.7088C70.1807 34.7088 70.3752 34.7042 70.5954 34.6952C70.8155 34.6862 71.0507 34.6666 71.301 34.6365C71.5513 34.6064 71.7941 34.5627 72.0293 34.5055C72.2645 34.4483 72.4726 34.3746 72.6535 34.2843C72.8375 34.1909 72.9838 34.078 73.0923 33.9456C73.2039 33.8131 73.2597 33.6551 73.2597 33.4714C73.2597 33.342 73.2205 33.2005 73.1421 33.0469C73.0637 32.8934 72.9596 32.7353 72.83 32.5728C72.7003 32.4072 72.551 32.2401 72.3821 32.0715C72.2163 31.9029 72.0444 31.7388 71.8665 31.5793C71.6916 31.4167 71.5166 31.2632 71.3417 31.1187C71.1698 30.9742 71.013 30.8432 70.8713 30.7258C70.8864 30.5632 70.903 30.4067 70.9211 30.2561C70.9422 30.1026 70.9603 29.9475 70.9753 29.791L74.7298 28.2285L75.0103 28.8788L71.4096 30.3239C71.6539 30.5286 71.9011 30.7378 72.1514 30.9516C72.4048 31.1623 72.64 31.3776 72.8571 31.5973C73.0742 31.8141 73.2657 32.0354 73.4316 32.2612C73.5975 32.487 73.7196 32.7143 73.798 32.9431C73.8523 33.0906 73.9081 33.2411 73.9654 33.3946C74.0257 33.5452 74.1011 33.6912 74.1915 33.8327C74.282 33.9712 74.3921 34.1021 74.5218 34.2256C74.6514 34.346 74.8128 34.4514 75.0058 34.5417C75.1324 34.6019 75.2742 34.647 75.431 34.6771C75.5878 34.7042 75.7612 34.7193 75.9512 34.7223H76.0507Z" fill="black"/>
<path d="M80.1545 34.7223V35.4268H75.8707V34.7223H80.1545Z" fill="black"/>
<path d="M84.2592 34.7223V35.4268H79.9755V34.7223H84.2592Z" fill="black"/>
<path d="M84.0802 34.7223H84.6049C84.7859 34.7223 84.9517 34.7163 85.1025 34.7042C85.2563 34.6922 85.395 34.6666 85.5187 34.6275C85.6453 34.5853 85.7569 34.5266 85.8534 34.4514C85.9529 34.3761 86.0404 34.2737 86.1158 34.1443C86.161 34.069 86.1867 33.9742 86.1927 33.8598C86.1957 33.8297 86.1972 33.8011 86.1972 33.774C86.1972 33.6837 86.1882 33.5798 86.1701 33.4624C86.152 33.342 86.1218 33.2065 86.0796 33.056C86.0374 32.9054 85.9906 32.7564 85.9394 32.6089C85.8911 32.4584 85.8383 32.3139 85.781 32.1754C85.7268 32.0339 85.677 31.9044 85.6318 31.787L86.2696 31.4664C86.3269 31.6049 86.3872 31.7554 86.4505 31.918C86.5169 32.0775 86.5787 32.2431 86.636 32.4147C86.6933 32.5863 86.7446 32.7624 86.7898 32.9431C86.835 33.1207 86.8667 33.2953 86.8848 33.4669C86.8938 33.5602 86.8984 33.6521 86.8984 33.7424C86.8984 33.8176 86.8923 33.9155 86.8803 34.0359C86.8712 34.1533 86.835 34.2828 86.7717 34.4243C86.6842 34.6169 86.5772 34.778 86.4505 34.9075C86.3269 35.0369 86.1821 35.1408 86.0163 35.2191C85.8504 35.2943 85.6649 35.3485 85.4599 35.3816C85.2578 35.4117 85.0377 35.4268 84.7995 35.4268H84.0802V34.7223ZM86.1882 29.8452L85.5232 30.509L84.8583 29.8452L85.5232 29.1814L86.1882 29.8452Z" fill="black"/>
<path d="M90.2649 35.4268C89.9905 35.4268 89.7447 35.3982 89.5276 35.341C89.3105 35.2808 89.1265 35.1859 88.9757 35.0565C88.825 34.927 88.7089 34.7599 88.6274 34.5552C88.549 34.3475 88.5098 34.0961 88.5098 33.8011C88.5098 33.5783 88.5098 33.3299 88.5098 33.056C88.5128 32.782 88.5144 32.4975 88.5144 32.2025C88.5144 31.9074 88.5113 31.6079 88.5053 31.3038C88.5023 30.9997 88.4963 30.7047 88.4872 30.4187C88.4782 30.1297 88.4646 29.8572 88.4465 29.6013C88.4284 29.3454 88.4058 29.1166 88.3786 28.9149L89.0843 28.7885C89.1115 28.948 89.1341 29.1362 89.1522 29.353C89.1703 29.5697 89.1853 29.803 89.1974 30.0529C89.2095 30.3028 89.217 30.5632 89.22 30.8342C89.226 31.1021 89.2291 31.3655 89.2291 31.6244C89.2291 31.9947 89.2306 32.3515 89.2336 32.6947C89.2336 32.8091 89.2336 32.925 89.2336 33.0424C89.2336 33.2712 89.2321 33.5 89.2291 33.7288C89.2291 33.9245 89.2441 34.0856 89.2743 34.212C89.3075 34.3385 89.3618 34.4408 89.4371 34.5191C89.5156 34.5944 89.6181 34.647 89.7447 34.6771C89.8714 34.7073 90.0312 34.7223 90.2242 34.7223H90.3554V35.4268H90.2649Z" fill="black"/>
<path d="M90.1764 34.7223H90.7011C90.882 34.7223 91.0479 34.7163 91.1987 34.7042C91.3525 34.6922 91.4912 34.6666 91.6148 34.6275C91.7415 34.5853 91.8531 34.5266 91.9496 34.4514C92.0491 34.3761 92.1365 34.2737 92.2119 34.1443C92.2572 34.069 92.2828 33.9742 92.2888 33.8598C92.2918 33.8297 92.2934 33.8011 92.2934 33.774C92.2934 33.6837 92.2843 33.5798 92.2662 33.4624C92.2481 33.342 92.218 33.2065 92.1757 33.056C92.1335 32.9054 92.0868 32.7564 92.0355 32.6089C91.9873 32.4584 91.9345 32.3139 91.8772 32.1754C91.8229 32.0339 91.7732 31.9044 91.7279 31.787L92.3657 31.4664C92.423 31.6049 92.4833 31.7554 92.5467 31.918C92.613 32.0775 92.6748 32.2431 92.7321 32.4147C92.7894 32.5863 92.8407 32.7624 92.8859 32.9431C92.9312 33.1207 92.9628 33.2953 92.9809 33.4669C92.99 33.5602 92.9945 33.6521 92.9945 33.7424C92.9945 33.8176 92.9885 33.9155 92.9764 34.0359C92.9674 34.1533 92.9312 34.2828 92.8678 34.4243C92.7804 34.6169 92.6733 34.778 92.5467 34.9075C92.423 35.0369 92.2783 35.1408 92.1124 35.2191C91.9465 35.2943 91.7611 35.3485 91.556 35.3816C91.354 35.4117 91.1338 35.4268 90.8956 35.4268H90.1764V34.7223ZM92.3024 37.1293L91.6374 37.7931L90.9725 37.1293L91.6374 36.4654L92.3024 37.1293Z" fill="black"/>
<path d="M93.9546 37.8879C94.413 37.7886 94.8262 37.6501 95.1941 37.4725C95.562 37.2948 95.8771 37.0946 96.1395 36.8719C96.4049 36.6521 96.6145 36.4173 96.7683 36.1674C96.9251 35.9175 97.0216 35.6706 97.0578 35.4268C96.9583 35.4298 96.8602 35.4313 96.7637 35.4313C96.622 35.4313 96.4592 35.4283 96.2752 35.4223C96.0913 35.4132 95.8967 35.3922 95.6917 35.359C95.4896 35.3229 95.3042 35.2717 95.1353 35.2055C94.9694 35.1363 94.8262 35.0444 94.7055 34.93C94.5849 34.8126 94.4914 34.6696 94.4251 34.501C94.3587 34.3324 94.3256 34.1307 94.3256 33.8959C94.3286 33.7514 94.3452 33.5994 94.3753 33.4398C94.4085 33.2772 94.4537 33.1177 94.511 32.9611C94.5714 32.8046 94.6437 32.6556 94.7282 32.5141C94.8126 32.3695 94.9106 32.2446 95.0222 32.1392C95.1338 32.0309 95.2574 31.9451 95.3931 31.8818C95.5288 31.8156 95.6781 31.7825 95.841 31.7825C96.052 31.7825 96.245 31.8276 96.42 31.918C96.5979 32.0053 96.7562 32.1242 96.8949 32.2747C97.0337 32.4252 97.1558 32.5999 97.2613 32.7986C97.3669 32.9973 97.4558 33.205 97.5282 33.4217C97.6006 33.6385 97.6564 33.8598 97.6956 34.0856C97.7348 34.3084 97.7589 34.5206 97.768 34.7223H98.3063V35.4268H97.7272C97.682 35.7158 97.6021 35.9882 97.4875 36.2441C97.3729 36.5031 97.2297 36.7409 97.0578 36.9577C96.8889 37.1774 96.6944 37.3761 96.4742 37.5537C96.2571 37.7344 96.0219 37.8924 95.7686 38.0279C95.5183 38.1664 95.2529 38.2823 94.9724 38.3756C94.695 38.469 94.4115 38.5382 94.122 38.5834L93.9546 37.8879ZM95.841 32.4915C95.7294 32.4915 95.6193 32.5366 95.5107 32.627C95.4022 32.7173 95.3042 32.8317 95.2167 32.9702C95.1323 33.1086 95.0629 33.2592 95.0086 33.4217C94.9574 33.5843 94.9317 33.7379 94.9317 33.8824C94.9468 34.0299 94.9935 34.1518 95.072 34.2481C95.1504 34.3445 95.2499 34.4228 95.3705 34.483C95.4911 34.5432 95.6253 34.5883 95.7731 34.6184C95.9239 34.6455 96.0762 34.6651 96.23 34.6771C96.3868 34.6862 96.5391 34.6907 96.6869 34.6907C96.8346 34.6907 96.9673 34.6907 97.0849 34.6907C97.0849 34.5552 97.0714 34.4077 97.0442 34.2481C97.0201 34.0856 96.9839 33.923 96.9356 33.7604C96.8874 33.5979 96.8271 33.4398 96.7547 33.2863C96.6823 33.1327 96.5994 32.9973 96.5059 32.8798C96.4154 32.7624 96.3144 32.6691 96.2028 32.5999C96.0912 32.5276 95.9706 32.4915 95.841 32.4915Z" fill="black"/>
<path d="M102.157 34.7223V35.4268H102.066C101.777 35.4268 101.531 35.3711 101.329 35.2597C101.127 35.1453 100.956 34.9993 100.818 34.8217C100.715 34.924 100.601 35.0128 100.474 35.0881C100.35 35.1634 100.207 35.2266 100.044 35.2778C99.8843 35.3259 99.7019 35.3636 99.4968 35.3907C99.2947 35.4147 99.0625 35.4268 98.8002 35.4268H98.1217V34.7223H98.8002C99.1078 34.7223 99.3686 34.6982 99.5827 34.6501C99.7999 34.5989 99.9748 34.5251 100.107 34.4288C100.243 34.3294 100.341 34.2075 100.402 34.063C100.462 33.9155 100.492 33.7439 100.492 33.5482C100.492 33.3856 100.48 33.22 100.456 33.0514C100.435 32.8829 100.394 32.6917 100.334 32.4779C100.46 32.4448 100.575 32.4132 100.677 32.3831C100.783 32.35 100.895 32.3169 101.012 32.2837C101.036 32.3741 101.057 32.4659 101.076 32.5592C101.094 32.6495 101.109 32.7459 101.121 32.8482C101.136 32.9476 101.149 33.0575 101.161 33.1779C101.174 33.2983 101.186 33.4323 101.198 33.5798C101.207 33.7002 101.225 33.8282 101.252 33.9636C101.279 34.0961 101.324 34.2195 101.388 34.3339C101.451 34.4453 101.537 34.5387 101.645 34.6139C101.754 34.6862 101.894 34.7223 102.066 34.7223H102.157ZM100.478 29.4433C100.352 29.4252 100.225 29.4102 100.098 29.3981C100.074 29.3951 100.052 29.3936 100.031 29.3936C99.925 29.3936 99.821 29.4162 99.7184 29.4613C99.6431 29.4945 99.5767 29.5396 99.5194 29.5968C99.4621 29.651 99.4169 29.7127 99.3837 29.782C99.3536 29.8512 99.337 29.9235 99.334 29.9987C99.334 30.0108 99.334 30.0228 99.334 30.0349C99.334 30.0981 99.3475 30.1598 99.3747 30.22C99.4018 30.2802 99.438 30.3374 99.4832 30.3916C99.5285 30.4428 99.5812 30.4879 99.6416 30.5271C99.7049 30.5662 99.7712 30.5978 99.8406 30.6219C99.9129 30.646 99.9868 30.658 100.062 30.658C100.098 30.658 100.135 30.6565 100.171 30.6535C100.207 30.6475 100.246 30.637 100.288 30.6219C100.346 30.6008 100.409 30.5737 100.478 30.5406C100.548 30.5045 100.614 30.4699 100.677 30.4368C100.744 30.4006 100.803 30.3675 100.854 30.3374C100.905 30.3073 100.941 30.2832 100.962 30.2652L101.202 30.5768C101.076 30.6641 100.916 30.7619 100.723 30.8703C100.53 30.9787 100.297 31.1081 100.026 31.2587L98.9223 31.8683C98.8861 31.8021 98.8545 31.7434 98.8273 31.6922C98.8002 31.641 98.7685 31.5838 98.7323 31.5206L99.6823 30.9922C99.5164 30.938 99.3732 30.8537 99.2525 30.7393C99.1349 30.6219 99.0505 30.5 98.9992 30.3735C98.957 30.2652 98.9359 30.1568 98.9359 30.0484C98.9359 30.0273 98.9374 29.9807 98.9404 29.9084C98.9434 29.8331 98.9706 29.7368 99.0218 29.6194C99.0761 29.502 99.15 29.3981 99.2435 29.3078C99.34 29.2145 99.4501 29.1422 99.5737 29.091C99.7305 29.0308 99.8888 29.0007 100.049 29.0007C100.166 29.0007 100.275 29.0113 100.374 29.0323C100.477 29.0504 100.551 29.067 100.596 29.082L100.478 29.4433Z" fill="black"/>
<path d="M106.256 34.7223V35.4268H101.972V34.7223H106.256Z" fill="black"/>
<path d="M110.361 34.7223V35.4268H106.077V34.7223H110.361Z" fill="black"/>
<path d="M110.182 34.7223H110.707C110.888 34.7223 111.053 34.7163 111.204 34.7042C111.358 34.6922 111.497 34.6666 111.62 34.6275C111.747 34.5853 111.859 34.5266 111.955 34.4514C112.055 34.3761 112.142 34.2737 112.217 34.1443C112.263 34.069 112.288 33.9742 112.294 33.8598C112.297 33.8297 112.299 33.8011 112.299 33.774C112.299 33.6837 112.29 33.5798 112.272 33.4624C112.254 33.342 112.223 33.2065 112.181 33.056C112.139 32.9054 112.092 32.7564 112.041 32.6089C111.993 32.4584 111.94 32.3139 111.883 32.1754C111.828 32.0339 111.779 31.9044 111.733 31.787L112.371 31.4664C112.429 31.6049 112.489 31.7554 112.552 31.918C112.619 32.0775 112.68 32.2431 112.738 32.4147C112.795 32.5863 112.846 32.7624 112.891 32.9431C112.937 33.1207 112.968 33.2953 112.986 33.4669C112.995 33.5602 113 33.6521 113 33.7424C113 33.8176 112.994 33.9155 112.982 34.0359C112.973 34.1533 112.937 34.2828 112.873 34.4243C112.786 34.6169 112.679 34.778 112.552 34.9075C112.429 35.0369 112.284 35.1408 112.118 35.2191C111.952 35.2943 111.767 35.3485 111.562 35.3816C111.359 35.4117 111.139 35.4268 110.901 35.4268H110.182V34.7223ZM112.29 29.8452L111.625 30.509L110.96 29.8452L111.625 29.1814L112.29 29.8452Z" fill="black"/>
<path d="M112.845 6.39747L112.972 6.36578L113 19.2875L109.181 13.3773C108.788 12.778 108.547 12.0934 108.477 11.3817C108.408 10.67 108.512 9.95223 108.782 9.28921C109.044 8.62673 109.464 8.0373 110.005 7.57156C110.547 7.10582 111.194 6.77769 111.892 6.61534L112.845 6.39747ZM110.157 0.0198076C110.529 0.0207866 110.897 0.0955806 111.239 0.239795C111.582 0.384009 111.892 0.594737 112.151 0.8596C112.684 1.39663 112.981 2.12174 112.976 2.87589V5.52599L111.72 5.82309L110.999 5.99342C110.345 6.15037 109.664 6.1559 109.008 6.0096C108.352 5.8633 107.738 5.56907 107.215 5.14967C106.73 4.76545 106.331 4.28538 106.043 3.73986C105.755 3.19435 105.584 2.59528 105.541 1.98064C105.541 1.87765 105.541 1.77862 105.541 1.67166V0L110.157 0.0198076ZM87.5956 2.86005C87.5925 2.1106 87.8888 1.39054 88.4195 0.858005C88.9503 0.325469 89.672 0.0239996 90.4263 0.0198076H104.719V1.64789C104.711 1.76527 104.711 1.88307 104.719 2.00045C104.675 2.61523 104.503 3.21424 104.214 3.75967C103.925 4.30511 103.526 4.78514 103.041 5.16947C102.52 5.58718 101.909 5.88076 101.256 6.0277C100.603 6.17464 99.9247 6.17105 99.2732 6.01719L87.5797 3.31163L87.5956 2.86005ZM90.4263 25.2571C89.672 25.2529 88.9503 24.9515 88.4195 24.4189C87.8888 23.8864 87.5925 23.1663 87.5956 22.4169V4.15142L98.2685 6.63119C98.968 6.79907 99.6168 7.13114 100.161 7.59956C100.704 8.06799 101.127 8.65911 101.393 9.32335C101.66 9.9876 101.762 10.7056 101.691 11.4172C101.621 12.1287 101.379 12.8131 100.988 13.4129L100.677 13.8922L93.3288 25.2492L90.4263 25.2571ZM113 22.4327C112.997 23.1795 112.697 23.8949 112.167 24.4237C111.636 24.9524 110.917 25.2519 110.165 25.2571H94.3055L96.8133 21.3751L101.362 14.3438C101.763 13.7213 102.315 13.2089 102.967 12.8538C103.619 12.4987 104.35 12.3123 105.094 12.3117C105.844 12.3126 106.581 12.5029 107.237 12.8646C107.892 13.2263 108.444 13.7476 108.842 14.3795L112.996 20.8007L113 22.4327Z" fill="#fc9827ff"/>
<path d="M61.9999 13.2899C61.9999 14.1179 61.8564 14.7041 61.5653 15.0448C61.3893 15.227 61.1743 15.3676 60.9362 15.456C60.6981 15.5445 60.443 15.5786 60.1899 15.5558H53.767C53.5501 15.5435 53.3388 15.4825 53.149 15.3775C52.8372 15.2103 52.5456 15.0083 52.2799 14.7754C51.9031 14.4551 51.55 14.1083 51.2234 13.7376L44.2822 5.93385L51.5503 3.47389V0.0196533L42.4921 3.14114C41.9705 3.3152 41.5145 3.6426 41.1844 4.07997C40.8568 4.53572 40.6648 5.0738 40.6302 5.63279C40.5577 6.18453 40.7003 6.74296 41.0289 7.19354C41.3557 7.6304 41.7057 8.04957 42.0775 8.44926L45.57 12.3987L45.9168 12.8225C46.0285 12.9572 46.1281 13.084 46.2159 13.2186C46.3036 13.3533 46.3793 13.4444 46.4471 13.5514C46.5149 13.6583 46.5707 13.7534 46.6145 13.8406C46.6584 13.9277 46.6983 14.003 46.7302 14.0703C46.7616 14.1265 46.7857 14.1864 46.8019 14.2486C46.8122 14.2862 46.8188 14.3246 46.8219 14.3635C46.8268 14.5356 46.7913 14.7065 46.7182 14.8626C46.6378 15.0137 46.5197 15.1419 46.3753 15.2349C46.1731 15.363 45.9464 15.4479 45.7095 15.4845C45.3608 15.5453 45.007 15.5732 44.653 15.5677H36.7989C35.7649 15.5677 35.026 15.3934 34.5822 15.0448C34.3516 14.841 34.1718 14.5868 34.057 14.3022C33.9422 14.0176 33.8954 13.7104 33.9203 13.4048V9.62576H30.5076V13.389C30.5348 13.6929 30.4918 13.9989 30.382 14.2838C30.2721 14.5687 30.0983 14.8249 29.8737 15.0329C29.4404 15.3894 28.7347 15.5677 27.7566 15.5677H25.4562C24.4236 15.5677 23.682 15.3934 23.2395 15.0448C23.0082 14.8414 22.8277 14.5873 22.7122 14.3027C22.5966 14.0181 22.5492 13.7107 22.5737 13.4048V9.62576H19.1649V13.389C19.1921 13.6929 19.1492 13.9989 19.0393 14.2838C18.9295 14.5687 18.7556 14.8249 18.531 15.0329C18.1084 15.3894 17.4067 15.5677 16.4259 15.5677H9.68811V13.9039C9.68811 12.2085 9.27081 10.9053 8.43623 9.99416C7.60164 9.08307 6.40558 8.63148 4.84804 8.6394C3.27721 8.6394 2.08115 9.08703 1.25985 9.98228C0.438558 10.8775 0.0186054 12.1557 0 13.8168C0 15.4726 0.381412 16.7481 1.14423 17.6434C1.90706 18.5386 3.02737 18.9863 4.50517 18.9863H6.32717C6.33122 19.4029 6.23662 19.8147 6.05102 20.1883C5.86542 20.562 5.59401 20.887 5.25869 21.1372C4.59953 21.6047 3.56427 21.8344 2.15291 21.8265H0.322939V25.257H2.20873C4.51846 25.257 6.31123 24.7288 7.58703 23.6725C8.86283 22.6161 9.56319 21.0541 9.68811 18.9863H16.3542C18.3104 18.9863 19.8307 18.4357 20.9151 17.3344C21.4644 17.8939 22.1374 18.3184 22.8807 18.5743C23.7119 18.8554 24.5863 18.9895 25.4642 18.9704H27.6888C29.6424 18.9704 31.1627 18.4198 32.2498 17.3186C32.7976 17.878 33.4693 18.3026 34.2114 18.5585C35.044 18.8393 35.9197 18.9734 36.7989 18.9546H40.1678H44.8603C47.0053 18.9546 48.5043 18.1742 49.3575 16.6135C50.6865 18.1663 52.1935 18.9427 53.8786 18.9427H60.3812C61.9999 18.9427 63.2292 18.4449 64.0691 17.4493C64.909 16.4537 65.3289 15.0316 65.3289 13.183V9.11872H61.9959L61.9999 13.2899ZM4.46929 15.5439C4.19395 15.5576 3.91962 15.5017 3.67191 15.3815C3.4587 15.2619 3.29699 15.0689 3.21741 14.8388C3.10106 14.5055 3.04833 14.1535 3.06192 13.801C3.01022 13.2817 3.15208 12.7615 3.46061 12.3392C3.64028 12.1794 3.85146 12.0585 4.08071 11.9842C4.30996 11.9098 4.55226 11.8837 4.79223 11.9075C5.01842 11.8839 5.24703 11.9128 5.46009 11.9918C5.67315 12.0709 5.86487 12.1979 6.02018 12.363C6.32727 12.8454 6.46727 13.4144 6.41887 13.9832V15.5439H4.46929Z" fill="#1D1D1B"/>
<path d="M81.3681 9.11912V13.2903C81.3681 14.1183 81.2246 14.7045 80.9375 15.0452C80.7604 15.2271 80.5446 15.3673 80.306 15.4557C80.0673 15.5441 79.8118 15.5785 79.5581 15.5562H73.1512C72.8659 15.5813 72.5786 15.5428 72.3103 15.4434C72.042 15.344 71.7994 15.1863 71.6003 14.9818C71.2734 14.5883 71.1099 13.9281 71.1099 13.0012V1.49365H67.8407V13.1398C67.8407 15.065 68.2713 16.5109 69.1324 17.4774C70.0441 18.4836 71.373 18.9867 73.1193 18.9867H79.7614C81.3801 18.9867 82.6094 18.4889 83.4493 17.4933C84.2892 16.4977 84.7091 15.0756 84.7091 13.227V9.11912H81.3681Z" fill="#1D1D1B"/>
<path d="M77.5168 21.8029H75.348C75.0111 21.8029 74.738 22.0742 74.738 22.4089V24.5599C74.738 24.8946 75.0111 25.166 75.348 25.166H77.5168C77.8537 25.166 78.1268 24.8946 78.1268 24.5599V22.4089C78.1268 22.0742 77.8537 21.8029 77.5168 21.8029Z" fill="#1D1D1B"/>
<path d="M64.7229 4.69019H62.5541C62.2172 4.69019 61.9441 4.96153 61.9441 5.29626V7.44724C61.9441 7.78196 62.2172 8.05331 62.5541 8.05331H64.7229C65.0598 8.05331 65.3329 7.78196 65.3329 7.44724V5.29626C65.3329 4.96153 65.0598 4.69019 64.7229 4.69019Z" fill="#1D1D1B"/>
<path d="M21.876 4.69019H19.7071C19.3702 4.69019 19.0971 4.96153 19.0971 5.29626V7.44724C19.0971 7.78196 19.3702 8.05331 19.7071 8.05331H21.876C22.2129 8.05331 22.486 7.78196 22.486 7.44724V5.29626C22.486 4.96153 22.2129 4.69019 21.876 4.69019Z" fill="#1D1D1B"/>
<path d="M29.463 21.8029H27.2941C26.9572 21.8029 26.6841 22.0742 26.6841 22.4089V24.5599C26.6841 24.8946 26.9572 25.166 27.2941 25.166H29.463C29.7999 25.166 30.073 24.8946 30.073 24.5599V22.4089C30.073 22.0742 29.7999 21.8029 29.463 21.8029Z" fill="#1D1D1B"/>
<path d="M25.512 21.8029H23.3431C23.0063 21.8029 22.7332 22.0742 22.7332 22.4089V24.5599C22.7332 24.8946 23.0063 25.166 23.3431 25.166H25.512C25.8489 25.166 26.122 24.8946 26.122 24.5599V22.4089C26.122 22.0742 25.8489 21.8029 25.512 21.8029Z" fill="#1D1D1B"/>
</svg>
