<svg width="95" height="28" viewBox="0 0 95 28" fill="none" xmlns="http://www.w3.org/2000/svg">
<path d="M14 28C21.732 28 28 21.732 28 14C28 6.26801 21.732 0 14 0C6.26801 0 0 6.26801 0 14C0 21.732 6.26801 28 14 28Z" fill="#0091EA"/>
<path d="M22.5898 12.3398C22.4805 9.68359 20.293 7.58984 17.6211 7.58984C16.1367 7.58984 14.793 8.24609 13.8867 9.27734C12.9805 8.24609 11.6367 7.58984 10.1523 7.58984C7.52734 7.58984 5.37109 9.62109 5.18359 12.1992C5.18359 12.2617 5.16797 12.3242 5.16797 12.3867V18.0117C5.16797 18.6992 5.73047 19.2617 6.41797 19.2617H6.44922C7.13672 19.2617 7.69922 18.6992 7.69922 18.0117V12.5742C7.69922 11.2148 8.80859 10.1055 10.168 10.1055C11.5273 10.1055 12.6367 11.2148 12.6367 12.5742V17.168C12.6367 17.8555 13.1992 18.418 13.8867 18.418H13.918C14.6055 18.418 15.168 17.8555 15.168 17.168V12.5742C15.168 11.2148 16.2773 10.1055 17.6367 10.1055C18.9961 10.1055 20.1055 11.2148 20.1055 12.5742V18.0273C20.1055 18.7148 20.6523 19.2617 21.3398 19.2617H21.3711C22.0586 19.2617 22.6055 18.7148 22.6055 18.0273V12.4648C22.5898 12.418 22.5898 12.3711 22.5898 12.3398Z" fill="white"/>
<path d="M17.868 19.7304C17.8055 19.6366 17.6336 19.8241 17.6336 19.8241C16.9461 20.5741 15.5086 21.0585 14.0242 21.0585C12.5399 21.0585 11.118 20.5741 10.4149 19.8241C10.4149 19.8241 10.2274 19.6366 10.1805 19.7304C10.1024 19.8397 10.2117 20.0116 10.2117 20.0116C11.1024 21.2929 12.4461 21.8554 14.0242 21.8554C15.6024 21.8554 16.9461 21.2772 17.8367 20.0116C17.8211 20.0272 17.9461 19.8554 17.868 19.7304Z" fill="white"/>
<path d="M43.7953 14.3311C44.2408 14.3311 44.6226 14.1738 44.9408 13.859C45.0363 13.7646 45.1158 13.6545 45.1794 13.5601C45.2431 13.6702 45.3226 13.7646 45.4022 13.859C45.7204 14.1738 46.0863 14.3311 46.5317 14.3311C46.9772 14.3311 47.359 14.1738 47.6613 13.859C47.9795 13.5443 48.1227 13.1666 48.1227 12.726C48.1227 12.2854 47.9636 11.9077 47.6613 11.6087C47.359 11.3097 46.9772 11.1523 46.5317 11.1523C46.0863 11.1523 45.7044 11.3097 45.4022 11.6087C45.3067 11.7031 45.2272 11.7975 45.1794 11.9077C45.1158 11.7975 45.0363 11.7031 44.9408 11.6087C44.6226 11.294 44.2408 11.1523 43.7953 11.1523C43.3658 11.1523 42.968 11.3097 42.6658 11.6244C42.3635 11.9392 42.1885 12.3011 42.1885 12.7417C42.1885 13.1824 42.3476 13.5601 42.6498 13.8748C42.968 14.1738 43.3499 14.3311 43.7953 14.3311Z" fill="white"/>
<path d="M76.4576 11.625C76.0758 11.625 75.7576 11.7509 75.519 12.0341C75.2644 12.3016 75.1371 12.6321 75.1371 13.0098C75.1371 13.2773 75.2167 13.6865 75.3439 14.2215C75.4712 14.7408 75.5508 15.15 75.5508 15.4332C75.5508 16.3932 74.8508 16.881 73.4666 16.881H72.9735H72.178H71.8439C70.6029 16.881 69.4257 16.346 68.2961 15.2759C66.9756 13.9855 66.1006 13.12 65.6392 12.6636C64.0165 11.1057 62.6323 9.8782 61.4709 8.934C61.28 8.77664 61.1846 8.60353 61.1846 8.41469C61.1846 8.22585 61.3119 8.08422 61.5346 7.9898C63.8574 7.09281 66.3551 6.33745 68.9961 5.73946C69.8234 5.56636 70.2211 5.12573 70.2211 4.44906C70.2211 3.55207 69.6961 3.0957 68.6302 3.0957C68.4552 3.0957 68.2324 3.12718 67.9938 3.17439C64.1119 4.07138 61.28 5.07852 59.4664 6.16435C58.655 6.65219 58.2573 7.45476 58.2573 8.55632C58.2573 9.09137 58.3368 9.51626 58.5277 9.84673C58.8459 10.3975 59.88 11.4361 61.646 12.9311C63.221 14.2687 64.0005 15.1815 64.0005 15.6536C64.0005 16.2988 63.3324 16.6764 61.996 16.8181C61.7096 16.8495 60.6278 16.8495 58.7345 16.8495H58.3368H57.8754C56.6186 16.8495 55.9027 16.346 55.6958 15.3388C55.5845 14.7723 55.5208 14.4261 55.489 14.2845C55.314 13.8753 54.9958 13.6707 54.5185 13.6707C54.089 13.6707 53.739 13.9383 53.5003 14.489C53.1026 15.3703 52.864 15.8896 52.7367 16.0312C51.9094 17.0699 49.7139 17.5892 46.1661 17.5892H44.4479C42.0297 17.5892 40.3751 17.3216 39.4842 16.7551C38.8796 16.3774 38.5773 15.7952 38.5773 15.0241C38.5773 14.8038 38.625 14.4576 38.7205 14.0169C38.816 13.5606 38.8637 13.2301 38.8637 13.0098C38.8637 12.3331 38.5296 12.0026 37.8455 12.0026C37.2091 12.0026 36.7 12.5534 36.3659 13.655C36.1273 14.4261 36 15.2287 36 16.0627C36 19.273 38.7682 20.8781 44.3047 20.8781C49.6185 20.8781 52.9276 20.0598 54.1685 18.4075C54.7095 19.5405 55.7754 20.107 57.3504 20.107H57.5095H58.3209H58.3527C60.755 20.107 62.4414 19.9654 63.4278 19.6664C64.9392 19.21 65.862 18.2658 66.212 16.8495C67.7711 19.0212 69.712 20.107 72.0189 20.107H72.1621H72.9575H73.2757C74.8348 20.107 76.044 19.6507 76.9349 18.7537C77.8258 17.8567 78.2554 16.6292 78.2554 15.0713C78.2395 12.7737 77.6508 11.625 76.4576 11.625Z" fill="white"/>
<path d="M74.1496 21.8213C73.7201 21.8213 73.3223 21.9787 73.02 22.2934C72.8132 22.498 72.6859 22.734 72.6064 22.9858C72.5268 22.7183 72.3996 22.498 72.1928 22.2934C71.8746 21.9787 71.5087 21.8213 71.0632 21.8213C70.6177 21.8213 70.2359 21.9787 69.9177 22.2777C69.5995 22.5766 69.4404 22.9543 69.4404 23.395C69.4404 23.8356 69.5995 24.2133 69.9177 24.528C70.2359 24.8427 70.6177 25.0001 71.0632 25.0001C71.5087 25.0001 71.8905 24.8427 72.1928 24.528C72.3996 24.3234 72.5109 24.0874 72.5905 23.8198C72.67 24.0874 72.7814 24.3234 72.9882 24.528C73.3064 24.8427 73.6723 25.0001 74.1178 25.0001C74.5633 25.0001 74.9451 24.8427 75.2633 24.528C75.5815 24.2133 75.7405 23.8356 75.7405 23.395C75.7405 22.9543 75.5815 22.5766 75.2633 22.2777C74.9451 21.9787 74.611 21.8213 74.1496 21.8213Z" fill="white"/>
<path d="M93.8802 13.8583C93.3075 12.9613 92.4802 12.5049 91.4143 12.5049C90.5234 12.5049 89.6483 12.977 88.7574 13.9212C88.5824 14.1258 88.1369 14.7238 87.4369 15.7152C87.1187 16.1716 86.8165 16.4863 86.5142 16.6279C86.2278 16.7853 85.8142 16.864 85.2733 16.864H84.9073C83.4278 16.864 82.7118 15.967 82.7118 14.1888V4.85692C82.7118 3.61373 82.2346 3 81.28 3C80.8027 3 80.4209 3.20458 80.1663 3.59799C79.9436 3.9442 79.8481 4.36909 79.8481 4.85692L80.1663 13.6852C80.2459 15.8883 80.4845 17.3676 80.8504 18.1701C81.4709 19.4763 82.7118 20.1215 84.5732 20.1215H84.7164H85.5119H85.5914C86.6256 20.1215 87.5006 19.7595 88.2165 19.0514C89.0279 20.0113 90.062 20.4834 91.3506 20.4834C92.3529 20.4834 93.1643 20.09 93.7689 19.2874C94.3257 18.5635 94.5962 17.7138 94.5962 16.6909C94.628 15.5578 94.3575 14.6136 93.8802 13.8583ZM91.287 17.7925C90.9688 17.7925 90.6506 17.698 90.2688 17.5249C89.8392 17.3046 89.6324 17.0528 89.6324 16.7853C89.6324 16.4234 89.8074 16.0772 90.1733 15.7624C90.5393 15.4477 90.9052 15.2746 91.2552 15.2746C91.6211 15.2746 91.9075 15.4477 92.1302 15.7782C92.3052 16.0614 92.4007 16.3919 92.4007 16.7853C92.4007 17.462 92.0507 17.7925 91.287 17.7925Z" fill="white"/>
</svg>
