<svg width="196" height="48" viewBox="0 0 196 48" fill="none" xmlns="http://www.w3.org/2000/svg">
<path d="M24 0.5H172C184.979 0.5 195.5 11.0213 195.5 24C195.5 36.9787 184.979 47.5 172 47.5H24C11.0213 47.5 0.5 36.9787 0.5 24C0.5 11.0213 11.0213 0.5 24 0.5Z" fill="black" stroke="#878787"/>
<path d="M85.1445 19.9024L84.9146 19.3056C85.4484 19.1381 85.8582 18.9366 86.1437 18.701C86.4346 18.4706 86.6329 18.2298 86.7385 17.9785C86.8495 17.7272 86.905 17.4864 86.905 17.2561C86.905 17.1095 86.8892 16.9681 86.8575 16.832C86.8257 16.6959 86.7702 16.5415 86.6909 16.3687C86.6116 16.196 86.5006 15.9813 86.3579 15.7248L86.9368 15.4343C87.1376 15.7745 87.2803 16.0965 87.365 16.4001C87.4548 16.7038 87.4998 16.9708 87.4998 17.2011C87.4998 17.5309 87.4443 17.8293 87.3333 18.0963C87.2276 18.3633 87.0849 18.5989 86.905 18.8031C86.7306 19.0125 86.5377 19.1905 86.3261 19.337C86.1199 19.4836 85.9112 19.604 85.6996 19.6983C85.4935 19.7925 85.3085 19.8606 85.1445 19.9024ZM86.5165 14.5312C86.4054 14.5312 86.3103 14.4945 86.231 14.4213C86.157 14.3427 86.1199 14.2511 86.1199 14.1464C86.1199 14.0417 86.157 13.9501 86.231 13.8716C86.3103 13.793 86.4054 13.7538 86.5165 13.7538C86.6221 13.7538 86.7122 13.793 86.7861 13.8716C86.8654 13.9501 86.905 14.0417 86.905 14.1464C86.905 14.2511 86.8654 14.3427 86.7861 14.4213C86.7122 14.4945 86.6221 14.5312 86.5165 14.5312ZM88.3577 18.0963L88.1991 12.4895H88.8414L89 18.0963H88.3577ZM92.0792 18.0963V14.3192H91.3417V18.0963H92.0792ZM91.1752 12.89C91.1752 13.1805 91.4131 13.4161 91.7065 13.4161C92.0079 13.4161 92.2458 13.1805 92.2458 12.89C92.2458 12.5916 92.0079 12.356 91.7065 12.356C91.4131 12.356 91.1752 12.5916 91.1752 12.89ZM93.4665 15.3086C93.4665 13.8559 94.4498 13.1177 95.4966 13.1177C96.5434 13.1177 97.5267 13.8559 97.5267 15.3086C97.5267 16.7614 96.5434 17.5074 95.4966 17.5074C94.4498 17.5074 93.4665 16.7614 93.4665 15.3086ZM92.6734 15.3086C92.6734 17.1697 94.085 18.2141 95.4966 18.2141C96.9082 18.2141 98.3198 17.1697 98.3198 15.3086C98.3198 13.4475 96.9082 12.411 95.4966 12.411C94.085 12.411 92.6734 13.4475 92.6734 15.3086ZM102.538 13.793C102.411 13.1884 101.903 12.411 100.635 12.411C99.5957 12.411 98.7789 13.1962 98.7789 14.0679C98.7789 14.9003 99.3499 15.4186 100.151 15.5913L100.952 15.7641C101.515 15.8819 101.792 16.2274 101.792 16.6279C101.792 17.1147 101.412 17.5152 100.635 17.5152C99.786 17.5152 99.3419 16.942 99.2864 16.3216L98.541 16.5572C98.6441 17.3503 99.2864 18.2141 100.642 18.2141C101.84 18.2141 102.585 17.4288 102.585 16.565C102.585 15.7876 102.062 15.2065 101.126 15.0024L100.286 14.8217C99.8098 14.7197 99.564 14.4134 99.564 14.0129C99.564 13.4946 100.016 13.0863 100.65 13.0863C101.436 13.0863 101.777 13.636 101.84 14.0365L102.538 13.793ZM107.984 18.1356C107.698 18.1356 107.445 18.0963 107.223 18.0178C107.006 17.934 106.831 17.7953 106.699 17.6016C106.572 17.4027 106.501 17.1278 106.485 16.7771L106.358 14.0443H107.001L107.127 16.6357C107.143 16.8818 107.188 17.0676 107.262 17.1933C107.336 17.3137 107.44 17.3948 107.572 17.4367C107.709 17.4733 107.873 17.4917 108.063 17.4917C108.174 17.4917 108.254 17.5231 108.301 17.5859C108.354 17.6435 108.38 17.7141 108.38 17.7979C108.38 17.8817 108.344 17.9602 108.269 18.0335C108.195 18.1016 108.1 18.1356 107.984 18.1356ZM106.786 17.2718C106.485 17.366 106.192 17.4131 105.906 17.4131C105.621 17.4131 105.362 17.3713 105.129 17.2875C104.896 17.2037 104.712 17.0833 104.574 16.9263C104.437 16.764 104.368 16.5703 104.368 16.3452C104.368 16.1253 104.423 15.9185 104.534 15.7248C104.651 15.5311 104.807 15.3583 105.002 15.2065C105.203 15.0547 105.433 14.9291 105.692 14.8296C105.957 14.7249 106.237 14.6542 106.533 14.6176L106.644 15.2772C106.379 15.2877 106.144 15.3243 105.938 15.3871C105.737 15.4447 105.565 15.5206 105.422 15.6149C105.285 15.7091 105.179 15.8112 105.105 15.9211C105.031 16.0311 104.994 16.1384 104.994 16.2431C104.994 16.3583 105.037 16.4525 105.121 16.5258C105.206 16.5991 105.314 16.6567 105.446 16.6985C105.578 16.7352 105.724 16.7588 105.882 16.7692C106.041 16.7745 106.195 16.7692 106.342 16.7535C106.49 16.7326 106.617 16.7038 106.723 16.6671L106.786 17.2718ZM112.642 18.1356C112.42 18.1356 112.216 18.1225 112.031 18.0963C111.846 18.0649 111.679 18.0099 111.532 17.9314C111.383 17.8529 111.259 17.7403 111.159 17.5937C111.058 17.4419 110.982 17.243 110.929 16.9969L111.397 16.7221C111.465 16.9315 111.55 17.0912 111.651 17.2011C111.751 17.3111 111.886 17.387 112.055 17.4288C112.229 17.4707 112.451 17.4917 112.721 17.4917C112.832 17.4917 112.911 17.5231 112.959 17.5859C113.012 17.6435 113.038 17.7141 113.038 17.7979C113.038 17.8817 113.001 17.9602 112.927 18.0335C112.853 18.1016 112.758 18.1356 112.642 18.1356ZM107.59 18.1356L107.662 17.4917C107.936 17.4917 108.206 17.4707 108.47 17.4288C108.735 17.387 108.994 17.3268 109.248 17.2482C109.501 17.1697 109.744 17.0755 109.977 16.9655C110.215 16.8504 110.44 16.7195 110.651 16.5729C110.514 16.4525 110.355 16.3478 110.175 16.2588C109.996 16.1698 109.797 16.1017 109.581 16.0546C109.369 16.0023 109.145 15.9761 108.907 15.9761C108.822 15.9761 108.743 15.9787 108.669 15.9839C108.595 15.9892 108.521 15.9997 108.447 16.0154C108.372 16.0258 108.288 16.0415 108.193 16.0625L108.066 15.4657C108.209 15.4238 108.352 15.3924 108.494 15.3714C108.637 15.3453 108.774 15.3322 108.907 15.3322C109.181 15.3322 109.43 15.3662 109.652 15.4343C109.874 15.4971 110.075 15.5756 110.255 15.6698C110.44 15.7641 110.612 15.8583 110.77 15.9525C110.934 16.0468 111.093 16.1279 111.246 16.196C111.399 16.2588 111.558 16.2902 111.722 16.2902H111.888L111.944 16.8556C111.717 16.8556 111.508 16.887 111.317 16.9498C111.127 17.0126 110.939 17.0938 110.754 17.1933C110.575 17.2875 110.384 17.3896 110.183 17.4995C109.982 17.6042 109.76 17.7063 109.517 17.8058C109.274 17.9 108.994 17.9785 108.677 18.0414C108.365 18.1042 108.003 18.1356 107.59 18.1356ZM108.835 14.5233C108.724 14.5233 108.629 14.4867 108.55 14.4134C108.476 14.3349 108.439 14.2433 108.439 14.1386C108.439 14.0339 108.476 13.9422 108.55 13.8637C108.629 13.7852 108.724 13.7459 108.835 13.7459C108.941 13.7459 109.031 13.7852 109.105 13.8637C109.184 13.9422 109.224 14.0339 109.224 14.1386C109.224 14.2433 109.184 14.3349 109.105 14.4134C109.031 14.4867 108.941 14.5233 108.835 14.5233ZM112.243 18.1356L112.322 17.4917C112.491 17.4917 112.629 17.4812 112.735 17.4603C112.84 17.4341 112.928 17.3739 112.996 17.2796C113.07 17.1802 113.139 17.0257 113.203 16.8163C113.266 16.6069 113.34 16.3138 113.425 15.9368L114.019 16.1017C113.988 16.2326 113.951 16.3897 113.908 16.5729C113.866 16.7561 113.845 16.9237 113.845 17.0755C113.845 17.1592 113.866 17.2325 113.908 17.2953C113.951 17.3582 114.022 17.4079 114.122 17.4445C114.228 17.476 114.368 17.4917 114.543 17.4917C114.701 17.4917 114.831 17.4786 114.931 17.4524C115.032 17.4262 115.114 17.3634 115.177 17.2639C115.246 17.1645 115.307 17.0048 115.36 16.7849C115.412 16.565 115.468 16.264 115.526 15.8819L116.129 15.9918C116.113 16.086 116.094 16.2012 116.073 16.3373C116.052 16.4734 116.031 16.6096 116.01 16.7457C115.994 16.8765 115.986 16.9865 115.986 17.0755C115.986 17.1488 116.002 17.2194 116.034 17.2875C116.07 17.3503 116.139 17.4 116.24 17.4367C116.346 17.4733 116.502 17.4917 116.708 17.4917C116.972 17.4917 117.162 17.4367 117.279 17.3268C117.4 17.2168 117.461 17.0493 117.461 16.8242C117.461 16.7038 117.458 16.5781 117.453 16.4473C117.448 16.3112 117.437 16.1619 117.421 15.9997C117.411 15.8321 117.392 15.641 117.366 15.4264L117.945 15.3871C117.977 15.8112 118.011 16.1593 118.048 16.4315C118.09 16.7038 118.148 16.9184 118.222 17.0755C118.302 17.2273 118.407 17.3346 118.54 17.3974C118.672 17.4603 118.846 17.4917 119.063 17.4917C119.174 17.4917 119.253 17.5231 119.301 17.5859C119.354 17.6435 119.38 17.7141 119.38 17.7979C119.38 17.8817 119.343 17.9602 119.269 18.0335C119.195 18.1016 119.1 18.1356 118.984 18.1356C118.804 18.1356 118.643 18.112 118.5 18.0649C118.362 18.0125 118.241 17.9445 118.135 17.8607C118.035 17.7718 117.95 17.6723 117.881 17.5623C117.818 17.4472 117.773 17.3268 117.747 17.2011L117.889 17.2482C117.831 17.4838 117.739 17.667 117.612 17.7979C117.49 17.9236 117.345 18.0125 117.176 18.0649C117.006 18.112 116.827 18.1356 116.636 18.1356C116.404 18.1356 116.213 18.1068 116.065 18.0492C115.917 17.9916 115.801 17.9052 115.716 17.7901C115.637 17.6697 115.584 17.5178 115.558 17.3346H115.827C115.727 17.5597 115.621 17.7299 115.51 17.845C115.399 17.9602 115.262 18.0387 115.098 18.0806C114.934 18.1173 114.717 18.1356 114.448 18.1356C114.315 18.1356 114.173 18.1146 114.019 18.0728C113.871 18.0309 113.742 17.9497 113.631 17.8293C113.52 17.7037 113.454 17.5178 113.433 17.2718L113.67 17.2247C113.58 17.4917 113.469 17.6906 113.337 17.8215C113.211 17.9471 113.057 18.0309 112.877 18.0728C112.698 18.1146 112.486 18.1356 112.243 18.1356ZM118.584 18.1356L118.663 17.4917C118.922 17.4917 119.128 17.476 119.282 17.4445C119.435 17.4131 119.546 17.3503 119.615 17.2561C119.684 17.1566 119.718 17.01 119.718 16.8163C119.718 16.6854 119.697 16.531 119.655 16.353C119.612 16.1698 119.557 15.9761 119.488 15.7719C119.419 15.5678 119.345 15.3662 119.266 15.1673L119.908 14.9317C119.977 15.0992 120.04 15.2903 120.099 15.5049C120.162 15.7196 120.215 15.9316 120.257 16.141C120.3 16.3504 120.321 16.5336 120.321 16.6907C120.321 16.9001 120.297 17.0859 120.249 17.2482C120.207 17.4053 120.141 17.5414 120.051 17.6566C119.961 17.7665 119.845 17.8581 119.702 17.9314C119.565 17.9995 119.403 18.0518 119.219 18.0885C119.033 18.1199 118.822 18.1356 118.584 18.1356ZM119.599 14.115C119.488 14.115 119.393 14.0784 119.314 14.0051C119.239 13.9265 119.203 13.8349 119.203 13.7302C119.203 13.6255 119.239 13.5339 119.314 13.4554C119.393 13.3769 119.488 13.3376 119.599 13.3376C119.705 13.3376 119.795 13.3769 119.869 13.4554C119.948 13.5339 119.988 13.6255 119.988 13.7302C119.988 13.8349 119.948 13.9265 119.869 14.0051C119.795 14.0784 119.705 14.115 119.599 14.115ZM124.996 18.2612L125.202 17.6173C125.525 17.6173 125.866 17.599 126.225 17.5623C126.585 17.5205 126.942 17.4498 127.296 17.3503C127.655 17.2456 127.996 17.1043 128.319 16.9263C128.641 16.7483 128.924 16.5232 129.167 16.2509L129.667 16.5415C129.619 16.6619 129.588 16.7588 129.572 16.832C129.556 16.9001 129.548 16.9629 129.548 17.0205C129.548 17.099 129.577 17.1749 129.635 17.2482C129.694 17.3163 129.802 17.3739 129.96 17.421C130.124 17.4681 130.354 17.4917 130.65 17.4917C130.761 17.4917 130.841 17.5231 130.888 17.5859C130.941 17.6435 130.967 17.7141 130.967 17.7979C130.967 17.8817 130.931 17.9602 130.856 18.0335C130.783 18.1016 130.687 18.1356 130.571 18.1356C130.233 18.1356 129.934 18.1016 129.675 18.0335C129.421 17.9602 129.231 17.8476 129.104 17.6958C128.982 17.5388 128.943 17.3372 128.985 17.0912L129.128 17.1383C128.916 17.3268 128.663 17.4917 128.366 17.633C128.076 17.7691 127.751 17.8843 127.391 17.9785C127.037 18.0728 126.656 18.1434 126.249 18.1906C125.847 18.2377 125.43 18.2612 124.996 18.2612ZM124.996 18.2612C124.526 18.2612 124.111 18.2298 123.751 18.167C123.397 18.1094 123.101 18.0178 122.863 17.8922C122.625 17.7665 122.445 17.6042 122.323 17.4053C122.202 17.2011 122.141 16.9551 122.141 16.6671C122.141 16.5362 122.152 16.4027 122.173 16.2666C122.194 16.1253 122.22 15.9839 122.252 15.8426C122.289 15.7012 122.326 15.5651 122.363 15.4343L122.958 15.5835C122.937 15.662 122.913 15.7562 122.887 15.8662C122.86 15.9708 122.836 16.0782 122.815 16.1881C122.799 16.2981 122.791 16.3975 122.791 16.4865C122.791 16.7588 122.86 16.9786 122.998 17.1461C123.14 17.3084 123.386 17.4288 123.735 17.5074C124.084 17.5807 124.573 17.6173 125.202 17.6173L125.361 18.0099L124.996 18.2612ZM126.328 14.9474C126.217 14.9474 126.122 14.9107 126.043 14.8375C125.969 14.7589 125.932 14.6673 125.932 14.5626C125.932 14.4579 125.969 14.3663 126.043 14.2878C126.122 14.2092 126.217 14.17 126.328 14.17C126.434 14.17 126.524 14.2092 126.598 14.2878C126.677 14.3663 126.717 14.4579 126.717 14.5626C126.717 14.6673 126.677 14.7589 126.598 14.8375C126.524 14.9107 126.434 14.9474 126.328 14.9474ZM125.242 14.9474C125.131 14.9474 125.036 14.9107 124.956 14.8375C124.882 14.7589 124.845 14.6673 124.845 14.5626C124.845 14.4579 124.882 14.3663 124.956 14.2878C125.036 14.2092 125.131 14.17 125.242 14.17C125.348 14.17 125.438 14.2092 125.511 14.2878C125.591 14.3663 125.63 14.4579 125.63 14.5626C125.63 14.6673 125.591 14.7589 125.511 14.8375C125.438 14.9107 125.348 14.9474 125.242 14.9474ZM130.173 18.1356L130.252 17.4917C130.384 17.4917 130.53 17.4917 130.688 17.4917C130.852 17.4864 131.016 17.4812 131.18 17.476C131.349 17.4707 131.505 17.4603 131.648 17.4445C131.79 17.4236 131.909 17.3974 132.005 17.366C132.195 17.298 132.343 17.2142 132.449 17.1147C132.554 17.01 132.629 16.8739 132.671 16.7064C132.718 16.5336 132.742 16.3138 132.742 16.0468C132.742 15.8269 132.713 15.6227 132.655 15.4343C132.597 15.2458 132.515 15.094 132.409 14.9788C132.303 14.8636 132.177 14.806 132.028 14.806C131.907 14.806 131.796 14.8532 131.695 14.9474C131.6 15.0364 131.523 15.1516 131.465 15.2929C131.412 15.4343 131.386 15.5756 131.386 15.717C131.386 15.8269 131.407 15.9211 131.449 15.9997C131.497 16.0782 131.574 16.141 131.679 16.1881C131.785 16.23 131.923 16.2509 132.092 16.2509C132.245 16.2509 132.399 16.2352 132.552 16.2038C132.71 16.1724 132.845 16.1305 132.956 16.0782L132.988 16.6279C132.903 16.6854 132.808 16.7326 132.702 16.7692C132.597 16.8059 132.486 16.832 132.369 16.8477C132.253 16.8634 132.137 16.8713 132.02 16.8713C131.751 16.8713 131.521 16.8294 131.331 16.7457C131.146 16.6567 131.003 16.5389 130.902 16.3923C130.807 16.2405 130.76 16.0677 130.76 15.874C130.76 15.6751 130.791 15.4761 130.855 15.2772C130.918 15.073 131.008 14.8872 131.124 14.7197C131.241 14.5521 131.381 14.4187 131.545 14.3192C131.709 14.2145 131.891 14.1621 132.092 14.1621C132.377 14.1621 132.613 14.2537 132.798 14.437C132.988 14.6202 133.128 14.861 133.218 15.1594C133.313 15.4526 133.361 15.7641 133.361 16.0939C133.361 16.4865 133.292 16.8242 133.154 17.1069C133.022 17.3843 132.8 17.6147 132.488 17.7979C132.367 17.866 132.219 17.9236 132.044 17.9707C131.875 18.0125 131.687 18.0466 131.481 18.0728C131.28 18.0989 131.069 18.1146 130.847 18.1199C130.625 18.1303 130.4 18.1356 130.173 18.1356ZM131.941 13.3533C131.83 13.3533 131.735 13.3166 131.656 13.2434C131.582 13.1648 131.545 13.0732 131.545 12.9685C131.545 12.8638 131.582 12.7722 131.656 12.6937C131.735 12.6151 131.83 12.5759 131.941 12.5759C132.047 12.5759 132.137 12.6151 132.211 12.6937C132.29 12.7722 132.33 12.8638 132.33 12.9685C132.33 13.0732 132.29 13.1648 132.211 13.2434C132.137 13.3166 132.047 13.3533 131.941 13.3533ZM135.631 18.1356C135.208 18.1356 134.883 18.0885 134.655 17.9942C134.433 17.9 134.28 17.7534 134.195 17.5545C134.111 17.3556 134.063 17.099 134.053 16.7849L133.894 12.4895H134.544L134.703 16.5336C134.714 16.7902 134.737 16.9891 134.774 17.1304C134.817 17.2665 134.907 17.3608 135.044 17.4131C135.187 17.4655 135.409 17.4917 135.71 17.4917C135.821 17.4917 135.9 17.5231 135.948 17.5859C136.001 17.6435 136.027 17.7141 136.027 17.7979C136.027 17.8817 135.99 17.9602 135.916 18.0335C135.842 18.1016 135.747 18.1356 135.631 18.1356ZM135.234 18.1356L135.314 17.4917C135.626 17.4917 135.869 17.4812 136.043 17.4603C136.218 17.4341 136.342 17.3739 136.416 17.2796C136.49 17.1802 136.527 17.0257 136.527 16.8163C136.527 16.6854 136.506 16.531 136.464 16.353C136.421 16.1698 136.366 15.9761 136.297 15.7719C136.228 15.5678 136.154 15.3662 136.075 15.1673L136.717 14.9317C136.786 15.0992 136.849 15.2903 136.908 15.5049C136.971 15.7196 137.024 15.9316 137.066 16.141C137.109 16.3504 137.13 16.5336 137.13 16.6907C137.13 16.9524 137.093 17.1749 137.019 17.3582C136.95 17.5414 136.839 17.6906 136.686 17.8058C136.532 17.921 136.334 18.0047 136.091 18.0571C135.853 18.1094 135.568 18.1356 135.234 18.1356ZM136.702 19.6197C136.591 19.6197 136.495 19.5805 136.416 19.502C136.342 19.4287 136.305 19.3397 136.305 19.235C136.305 19.1303 136.342 19.0386 136.416 18.9601C136.495 18.8816 136.591 18.8423 136.702 18.8423C136.807 18.8423 136.897 18.8816 136.971 18.9601C137.051 19.0386 137.09 19.1303 137.09 19.235C137.09 19.3397 137.051 19.4287 136.971 19.502C136.897 19.5805 136.807 19.6197 136.702 19.6197ZM135.615 19.6197C135.504 19.6197 135.409 19.5805 135.33 19.502C135.255 19.4287 135.219 19.3397 135.219 19.235C135.219 19.1303 135.255 19.0386 135.33 18.9601C135.409 18.8816 135.504 18.8423 135.615 18.8423C135.721 18.8423 135.811 18.8816 135.885 18.9601C135.964 19.0386 136.004 19.1303 136.004 19.235C136.004 19.3397 135.964 19.4287 135.885 19.502C135.811 19.5805 135.721 19.6197 135.615 19.6197ZM137.239 19.9024L137.009 19.3056C137.543 19.1381 137.953 18.9366 138.239 18.701C138.529 18.4706 138.728 18.2298 138.833 17.9785C138.944 17.7272 139 17.4864 139 17.2561C139 17.1095 138.984 16.9681 138.952 16.832C138.921 16.6959 138.865 16.5415 138.786 16.3687C138.707 16.196 138.595 15.9813 138.453 15.7248L139.032 15.4343C139.232 15.7745 139.375 16.0965 139.46 16.4001C139.55 16.7038 139.595 16.9708 139.595 17.2011C139.595 17.5309 139.539 17.8293 139.428 18.0963C139.323 18.3633 139.18 18.5989 139 18.8031C138.825 19.0125 138.633 19.1905 138.421 19.337C138.215 19.4836 138.006 19.604 137.795 19.6983C137.588 19.7925 137.403 19.8606 137.239 19.9024ZM140.001 17.743L140.318 17.2011C140.424 17.2692 140.572 17.3346 140.762 17.3974C140.952 17.4603 141.174 17.4917 141.428 17.4917C141.693 17.4917 141.901 17.4655 142.054 17.4131C142.213 17.3608 142.327 17.2849 142.395 17.1854C142.47 17.0807 142.507 16.9603 142.507 16.8242C142.507 16.7195 142.483 16.5912 142.435 16.4394C142.393 16.2823 142.298 16.0729 142.15 15.8112C142.002 15.5442 141.774 15.1961 141.468 14.7668L142.015 14.4134C142.295 14.7956 142.517 15.1411 142.681 15.45C142.85 15.7588 142.969 16.0311 143.038 16.2666C143.112 16.497 143.149 16.6959 143.149 16.8634C143.149 17.0729 143.096 17.277 142.99 17.476C142.885 17.6697 142.708 17.8293 142.459 17.955C142.211 18.0806 141.867 18.1434 141.428 18.1434C141.238 18.1434 141.053 18.1277 140.873 18.0963C140.698 18.0649 140.537 18.0204 140.389 17.9628C140.241 17.9 140.112 17.8267 140.001 17.743Z" fill="#EAF2FF"/>
<path d="M143.663 29.0872H130.739C130.041 29.0872 129.474 28.5258 129.474 27.8344V26.3196C129.474 26.1388 129.325 25.9918 129.143 25.9918H129.017H126.302C126.12 25.9918 125.971 26.1388 125.971 26.3196V27.84C125.971 28.5296 125.406 29.0891 124.71 29.0891H123.937C123.241 29.0891 122.676 28.5296 122.676 27.84V26.3196C122.676 26.1388 122.527 25.9918 122.345 25.9918H119.552C119.369 25.9918 119.22 26.1388 119.22 26.3196V27.8344C119.22 28.5258 118.653 29.0872 117.955 29.0872H106.707C106.522 29.0872 106.372 29.2361 106.372 29.4188V30.7772C106.372 31.6927 107.122 32.4334 108.045 32.4334H117.571C118.872 32.4334 120.056 31.9395 120.948 31.1352C121.841 31.9378 123.022 32.4334 124.323 32.4334C125.636 32.4334 126.829 31.9303 127.723 31.1144C128.62 31.9303 129.81 32.4334 131.125 32.4334H142.328C143.253 32.4334 144 31.691 144 30.7772V29.4188C144 29.2361 143.85 29.0872 143.665 29.0872H143.663Z" fill="#EAF2FF"/>
<path d="M127.377 33.5919H122.832C122.702 33.5919 122.598 33.6954 122.598 33.8236V35.8487C122.598 35.9769 122.702 36.0807 122.832 36.0807H126.068C126.928 36.0807 127.626 35.3891 127.626 34.5376V33.8368C127.626 33.701 127.514 33.59 127.377 33.59V33.5919Z" fill="#EAF2FF"/>
<path d="M97.4464 33.9913H92.8174C92.688 33.9913 92.5835 34.0948 92.5835 34.2229V36.1466C92.5835 36.3311 92.7339 36.48 92.9222 36.48H95.0206V38.3246C95.0206 38.46 95.1311 38.5694 95.2682 38.5694H95.936C96.8624 38.5694 97.6121 37.8251 97.6121 36.9097V34.1534C97.6121 34.0628 97.5379 33.9913 97.4484 33.9913H97.4464Z" fill="#EAF2FF"/>
<path d="M115.439 33.8197H113.434C113.297 33.8197 113.187 33.9291 113.187 34.0645V35.975C113.187 36.1595 113.337 36.3084 113.523 36.3084H115.53C115.668 36.3084 115.778 36.1991 115.778 36.0636V34.1551C115.778 33.9703 115.626 33.8197 115.439 33.8197Z" fill="#EAF2FF"/>
<path d="M99.8522 29.0872H85.3123C85.1257 29.0872 84.9756 29.236 84.9756 29.4206V30.7771C84.9756 31.6927 85.725 32.4331 86.648 32.4331H99.8522C100.04 32.4331 100.191 32.2825 100.191 32.0977V29.4244C100.191 29.2379 100.039 29.089 99.8522 29.089V29.0872Z" fill="#EAF2FF"/>
<path d="M104.498 22.5836H101.794C101.608 22.5836 101.456 22.7343 101.456 22.9189V32.098C101.456 32.2825 101.608 32.4331 101.794 32.4331H103.16C104.085 32.4331 104.835 31.691 104.835 30.7753V22.9189C104.835 22.7343 104.684 22.5836 104.496 22.5836H104.498Z" fill="#EAF2FF"/>
<path d="M62.944 13.6913C63.3754 10.145 66.621 7.6188 70.1916 8.04739L70.8172 8.12216C70.9251 8.13551 71.0033 8.23297 70.9897 8.33979L70.9141 8.96066C70.4828 12.5069 67.2372 15.0331 63.6667 14.6045L63.041 14.5298C62.9332 14.5164 62.8563 14.4189 62.8684 14.3121L62.944 13.6913Z" fill="#EAF2FF"/>
<path fill-rule="evenodd" clip-rule="evenodd" d="M59.3015 16.6781C55.2685 16.6781 52 19.9253 52 23.9295V32.7486C52 36.7526 55.2685 40 59.3015 40H68.1819C72.2148 40 75.4835 36.754 75.4835 32.7486V23.9295C75.4835 19.9253 72.2148 16.6781 68.1819 16.6781H59.3015ZM59.6966 21.7732C58.2794 21.7732 57.1306 22.9134 57.1306 24.3208V32.356C57.1306 33.7633 58.2794 34.9036 59.6966 34.9036H67.7882C69.2053 34.9036 70.3543 33.7633 70.3543 32.356V24.3208C70.3543 22.9134 69.2053 21.7732 67.7882 21.7732H59.6966Z" fill="#EAF2FF"/>
</svg>
