<svg width="196" height="48" viewBox="0 0 196 48" fill="none" xmlns="http://www.w3.org/2000/svg">
<path d="M24 0.5H172C184.979 0.5 195.5 11.0213 195.5 24C195.5 36.9787 184.979 47.5 172 47.5H24C11.0213 47.5 0.5 36.9787 0.5 24C0.5 11.0213 11.0213 0.5 24 0.5Z" fill="black" stroke="#878787"/>
<path d="M105.504 19.1413C105.755 19.1413 105.958 18.9382 105.958 18.6877C105.958 18.4372 105.755 18.2341 105.504 18.2341C105.254 18.2341 105.051 18.4372 105.051 18.6877C105.051 18.9382 105.254 19.1413 105.504 19.1413Z" fill="white"/>
<path d="M106.462 19.1413C106.713 19.1413 106.916 18.9382 106.916 18.6877C106.916 18.4372 106.713 18.2341 106.462 18.2341C106.212 18.2341 106.009 18.4372 106.009 18.6877C106.009 18.9382 106.212 19.1413 106.462 19.1413Z" fill="white"/>
<path d="M58.2681 17.3611C58.2559 17.613 58.2039 17.8614 58.114 18.0971C58.0324 18.3092 57.907 18.5016 57.746 18.662C57.5807 18.8188 57.3857 18.941 57.1726 19.0215C56.9302 19.1041 56.6754 19.1446 56.4194 19.1413H56V18.4737H56.4194C56.5982 18.4785 56.7768 18.4583 56.95 18.4138C57.0849 18.3758 57.2083 18.3052 57.3095 18.2084C57.413 18.1109 57.4871 17.9863 57.5235 17.8489C57.5787 17.6717 57.6047 17.4867 57.6005 17.3011V15.4011H58.2681V17.3611Z" fill="white"/>
<path d="M59.6974 17.5066H59.0298V13.1501H59.6974V17.5066Z" fill="white"/>
<path d="M63.9166 17.4295H63.1206V13.9204H63.9166V17.4295Z" fill="white"/>
<path d="M68.6665 15.2043C68.6766 15.6248 68.5948 16.0425 68.4269 16.4282C68.2831 16.7629 68.0414 17.0464 67.7336 17.2412C67.4227 17.433 67.0632 17.531 66.698 17.5237C66.333 17.5301 65.9737 17.4321 65.6624 17.2412C65.3544 17.0479 65.1103 16.7681 64.9606 16.4367C64.7896 16.0547 64.7049 15.6398 64.7124 15.2214V14.9561C64.7059 14.5322 64.7906 14.1119 64.9606 13.7236C65.0998 13.3748 65.3415 13.0763 65.6538 12.8677C65.9651 12.6769 66.3244 12.5789 66.6895 12.5853C67.0498 12.5736 67.4054 12.6701 67.7105 12.8623C68.0156 13.0545 68.2561 13.3336 68.4012 13.6637C68.572 14.0518 68.6567 14.4722 68.6494 14.8961L68.6665 15.2043ZM67.8107 14.9475C67.8391 14.5211 67.7344 14.0965 67.5111 13.7321C67.4125 13.5977 67.2837 13.4884 67.135 13.413C66.9863 13.3377 66.8219 13.2984 66.6552 13.2984C66.4885 13.2984 66.3242 13.3377 66.1755 13.413C66.0268 13.4884 65.8979 13.5977 65.7993 13.7321C65.5727 14.089 65.4649 14.5085 65.4912 14.9304V15.2043C65.4639 15.6305 65.5685 16.0549 65.7908 16.4196C65.8864 16.5567 66.0148 16.6677 66.1643 16.7424C66.3138 16.8172 66.4796 16.8533 66.6467 16.8475C66.8132 16.8558 66.979 16.8217 67.1287 16.7484C67.2784 16.675 67.4071 16.5648 67.5025 16.4282C67.72 16.0586 67.8214 15.6322 67.7935 15.2043L67.8107 14.9475Z" fill="white"/>
<path d="M71.9879 16.2313C71.9912 16.1383 71.9728 16.0458 71.9342 15.9611C71.8956 15.8764 71.8378 15.8019 71.7653 15.7435C71.5195 15.5886 71.2509 15.4731 70.9694 15.4011C70.647 15.3179 70.3385 15.1882 70.0536 15.016C69.8589 14.9127 69.6957 14.7588 69.5812 14.5705C69.4667 14.3822 69.4052 14.1665 69.4031 13.9461C69.3998 13.7625 69.4399 13.5808 69.5202 13.4156C69.6005 13.2505 69.7188 13.1068 69.8653 12.9961C70.2195 12.7377 70.6512 12.6078 71.0892 12.6281C71.3839 12.6279 71.6753 12.6891 71.9451 12.8078C72.1927 12.9211 72.4034 13.1021 72.5527 13.3299C72.7017 13.5525 72.7793 13.8152 72.7753 14.0831H71.9194C71.9262 13.9742 71.9082 13.8653 71.8666 13.7644C71.8251 13.6636 71.7612 13.5735 71.6797 13.5011C71.4935 13.3457 71.254 13.2689 71.0122 13.2871C70.7909 13.2752 70.5717 13.3353 70.3874 13.4583C70.3123 13.5149 70.2521 13.5888 70.2118 13.6738C70.1716 13.7587 70.1525 13.8522 70.1563 13.9461C70.1584 14.0337 70.1822 14.1194 70.2255 14.1956C70.2688 14.2717 70.3303 14.336 70.4045 14.3826C70.6501 14.538 70.9187 14.6535 71.2004 14.725C71.5012 14.8118 71.7891 14.9385 72.0563 15.1015C72.2607 15.2154 72.4318 15.3806 72.5527 15.5808C72.6603 15.7776 72.7163 15.9985 72.7154 16.2228C72.7303 16.401 72.7023 16.5803 72.6338 16.7456C72.5654 16.9108 72.4583 17.0573 72.3217 17.1728C71.9583 17.424 71.5218 17.5474 71.0806 17.5237C70.7543 17.5282 70.4306 17.4641 70.1306 17.3354C69.8619 17.222 69.6285 17.0388 69.4545 16.8047C69.2915 16.5751 69.2074 16.2988 69.2148 16.0173H70.0707C70.0636 16.1362 70.0838 16.255 70.1298 16.3648C70.1758 16.4746 70.2463 16.5724 70.336 16.6507C70.5596 16.8111 70.8316 16.8897 71.1063 16.8732C71.3374 16.8904 71.5673 16.8269 71.7568 16.6935C71.8298 16.6409 71.889 16.5714 71.9292 16.4909C71.9695 16.4104 71.9896 16.3213 71.9879 16.2313Z" fill="white"/>
<path d="M79.169 17.5066H79.0321C78.8794 17.5069 78.7272 17.4896 78.5784 17.4552C78.4369 17.4209 78.2992 17.3722 78.1676 17.3097C78.0488 17.2416 77.9394 17.1582 77.8424 17.0615C77.7453 16.9623 77.667 16.8463 77.6113 16.7191C77.5625 16.8066 77.4988 16.8848 77.423 16.9502C77.3352 17.0172 77.2405 17.0746 77.1406 17.1214C77.009 17.1729 76.8706 17.2047 76.7298 17.2156H76.6099C76.5104 17.2272 76.4099 17.2272 76.3104 17.2156C76.1983 17.1867 76.0915 17.1405 75.9937 17.0786C75.8907 17.0098 75.7984 16.9262 75.7198 16.8304C75.6357 16.7294 75.5718 16.6132 75.5315 16.4881C75.4867 16.3498 75.4636 16.2055 75.463 16.0601C75.4599 15.8588 75.5039 15.6595 75.5914 15.4781C75.677 15.3071 75.7897 15.151 75.9252 15.0159C76.0692 14.8836 76.2305 14.7714 76.4045 14.6822C76.5866 14.5884 76.7754 14.5083 76.9694 14.4425C76.9664 14.3941 76.9664 14.3455 76.9694 14.297V14.1515L77.5856 14.006L78.1248 16.1971C78.1519 16.3264 78.2107 16.447 78.296 16.548C78.3662 16.6303 78.4502 16.6998 78.5442 16.7534C78.63 16.7971 78.7226 16.8261 78.8181 16.839H79.0663H79.169V17.5066ZM77.2861 16.0259C77.2902 15.9803 77.2902 15.9345 77.2861 15.8889C77.2861 15.8889 77.2861 15.8119 77.2861 15.752C77.2861 15.6921 77.2861 15.6322 77.2433 15.5466C77.2005 15.461 77.2433 15.384 77.1834 15.2984C77.1594 15.2225 77.1394 15.1453 77.1235 15.0673C76.831 15.1438 76.5592 15.2841 76.3275 15.4781C76.2445 15.5457 76.1771 15.6304 76.1299 15.7264C76.0826 15.8224 76.0566 15.9275 76.0536 16.0344C76.0504 16.1315 76.0773 16.2272 76.1306 16.3083C76.1795 16.3895 76.2485 16.4566 76.331 16.5031C76.4135 16.5496 76.5067 16.5739 76.6014 16.5736C76.6862 16.5769 76.7707 16.5623 76.8496 16.5309C76.9575 16.4959 77.0547 16.434 77.132 16.3511C77.2295 16.2669 77.2959 16.1524 77.3203 16.0259H77.2861Z" fill="white"/>
<path d="M83.3622 16.5737C83.384 16.6299 83.4192 16.6798 83.4649 16.7192C83.5048 16.7521 83.5516 16.7755 83.6018 16.7877H83.7388H84.4149V17.4552H83.8329C83.6848 17.4548 83.5376 17.4317 83.3964 17.3868C83.2663 17.342 83.1448 17.2754 83.0369 17.1899C82.9241 17.1004 82.8334 16.9862 82.7716 16.8561H82.7288C82.5086 16.9621 82.2829 17.0564 82.0527 17.1386C81.8029 17.224 81.5486 17.2954 81.2909 17.3525C81.0325 17.4106 80.7684 17.4393 80.5035 17.4381H79.0742V16.7705H80.5035C80.6516 16.7829 80.8005 16.7829 80.9486 16.7705L81.4022 16.6935C81.5563 16.6935 81.7018 16.6165 81.8473 16.5651C81.9928 16.5138 82.1383 16.471 82.2752 16.4196L82.6689 16.257C82.7773 16.2054 82.883 16.1482 82.9856 16.0858L81.4707 15.5552C81.3883 15.545 81.3049 15.545 81.2225 15.5552C81.1605 15.5415 81.0962 15.5415 81.0342 15.5552C80.9713 15.5972 80.9187 15.6528 80.8801 15.7178C80.8346 15.7844 80.7972 15.8562 80.7689 15.9318L80.1612 15.7178C80.2035 15.5792 80.2639 15.4468 80.3409 15.3241C80.4081 15.2049 80.4983 15.1002 80.6062 15.016C80.7183 14.9277 80.8507 14.8689 80.9914 14.8448H81.1283C81.2474 14.8494 81.3654 14.8696 81.4792 14.9047L81.7874 15.0074L82.0612 15.1101L82.3437 15.2128L82.686 15.3412L83.1396 15.5124L83.7473 15.7349L83.8243 16.2998L83.6617 16.4025L83.3622 16.5737Z" fill="white"/>
<path d="M84.3037 16.839H84.6803C84.7852 16.8551 84.892 16.8551 84.997 16.839C85.0673 16.8209 85.132 16.7856 85.1853 16.7363C85.2292 16.6938 85.2616 16.6407 85.2794 16.5822C85.2839 16.511 85.2839 16.4395 85.2794 16.3682V15.4011H85.947V16.3169C85.9405 16.3885 85.9493 16.4606 85.973 16.5285C85.9966 16.5964 86.0344 16.6585 86.0839 16.7106C86.1986 16.8059 86.3462 16.8521 86.4948 16.839H86.6146C86.6686 16.8255 86.7186 16.7991 86.7601 16.7619C86.81 16.7077 86.848 16.6436 86.8713 16.5736C86.9016 16.4885 86.9161 16.3986 86.9141 16.3083V15.4011H87.5817V16.3169C87.5751 16.3878 87.5831 16.4593 87.6052 16.527C87.6273 16.5947 87.663 16.6572 87.7101 16.7106C87.8313 16.8062 87.9843 16.8521 88.138 16.839C88.1891 16.8471 88.2411 16.8471 88.2921 16.839C88.3475 16.8241 88.3977 16.7946 88.4376 16.7534C88.4834 16.7107 88.5185 16.658 88.5403 16.5993C88.5724 16.5294 88.5899 16.4537 88.5917 16.3768V15.4011H89.2593V16.3511C89.2531 16.4204 89.2639 16.4901 89.2908 16.5542C89.3176 16.6183 89.3597 16.6749 89.4133 16.7191C89.5474 16.8075 89.7067 16.8496 89.8669 16.839H90.1836V17.5066H89.8669C89.6815 17.5092 89.4967 17.4832 89.3192 17.4295C89.1698 17.3842 89.0344 17.3017 88.9255 17.1899C88.8329 17.2968 88.7153 17.3792 88.5831 17.4295C88.4462 17.4805 88.3013 17.5066 88.1552 17.5066C87.9837 17.5102 87.8128 17.4841 87.6502 17.4295C87.5073 17.3797 87.3762 17.301 87.2651 17.1984C87.1504 17.3007 87.0166 17.3792 86.8713 17.4295C86.7436 17.4824 86.6073 17.5114 86.4691 17.5151C86.2996 17.5196 86.1309 17.4906 85.9727 17.4295C85.8375 17.3824 85.7125 17.3097 85.6046 17.2156C85.4752 17.3209 85.3227 17.3942 85.1596 17.4295C84.9824 17.4847 84.7974 17.5107 84.6118 17.5066H84.3037V16.839Z" fill="white"/>
<path d="M91.7757 14.9646C91.7757 14.9646 91.7757 15.0074 91.7757 15.0673C91.7757 15.1272 91.7757 15.1871 91.827 15.2642C91.8784 15.3412 91.827 15.4268 91.8784 15.5295C91.9297 15.6322 91.8784 15.7178 91.9212 15.8119C91.964 15.9061 91.9212 16.0088 91.9212 16.0944C91.9212 16.1799 91.9212 16.2655 91.9212 16.334C91.9254 16.5134 91.8903 16.6916 91.8185 16.8561C91.7574 16.9963 91.6669 17.1218 91.5532 17.2241C91.4483 17.318 91.3262 17.3907 91.1937 17.4381C91.0641 17.4822 90.9283 17.5053 90.7914 17.5066H89.9355V16.839H90.7914H90.9027C90.9578 16.8304 91.0103 16.8099 91.0567 16.7791C91.1128 16.738 91.1595 16.6855 91.1937 16.625C91.2331 16.5393 91.2507 16.4453 91.245 16.3511C91.2487 16.2941 91.2487 16.2369 91.245 16.1799C91.245 16.1115 91.245 16.043 91.245 15.966C91.245 15.8889 91.245 15.8119 91.245 15.7263L91.1937 15.4952C91.1906 15.4325 91.1906 15.3697 91.1937 15.307V15.1786L91.7757 14.9646Z" fill="white"/>
<path d="M100.66 16.839V17.5065H100.429H100.206L99.9752 17.4295C99.9016 17.4107 99.8321 17.3788 99.7698 17.3354C99.6998 17.3005 99.6362 17.2542 99.5815 17.1984C99.3218 17.4175 98.9876 17.5279 98.6486 17.5065H94.6174C94.4739 17.5082 94.3315 17.482 94.198 17.4295C94.0634 17.3825 93.9407 17.3065 93.8385 17.207L93.7187 17.0701C93.6731 17.0096 93.6357 16.9434 93.6074 16.8732C93.5675 16.7949 93.5387 16.7113 93.5219 16.625C93.5083 16.5199 93.5083 16.4134 93.5219 16.3083C93.5096 16.1945 93.5096 16.0798 93.5219 15.966C93.5219 15.8376 93.5647 15.7263 93.5903 15.6151C93.616 15.5038 93.6417 15.4096 93.6674 15.3241C93.663 15.2757 93.663 15.227 93.6674 15.1786L93.984 15.2813L94.3007 15.384C94.288 15.4423 94.2708 15.4995 94.2494 15.5551C94.2494 15.6322 94.2494 15.7178 94.1894 15.8034C94.1649 15.8902 94.1477 15.9789 94.1381 16.0687C94.131 16.1484 94.131 16.2286 94.1381 16.3083C94.1329 16.4088 94.1536 16.509 94.198 16.5993C94.2295 16.6617 94.2767 16.7148 94.3349 16.7534C94.3789 16.7901 94.4323 16.8138 94.489 16.8218H94.6088H98.6143C98.7363 16.8268 98.8581 16.8094 98.9738 16.7705C99.0457 16.7472 99.1105 16.706 99.1621 16.6507C99.1964 16.6117 99.22 16.5645 99.2306 16.5137C99.2306 16.4624 99.2306 16.4196 99.2306 16.3939V15.3925H99.8982V16.3939C99.8925 16.4781 99.9135 16.5619 99.9581 16.6336C99.9987 16.69 100.051 16.7368 100.112 16.7705C100.166 16.7966 100.224 16.8139 100.283 16.8218H100.412L100.66 16.839Z" fill="white"/>
<path d="M100.565 17.5065V16.839H101.781C101.947 16.8408 102.113 16.8265 102.277 16.7962C102.379 16.7804 102.477 16.7486 102.568 16.702C102.63 16.6701 102.685 16.6265 102.731 16.5736C102.758 16.5284 102.778 16.4794 102.791 16.4281H102.406C102.225 16.4297 102.044 16.4125 101.866 16.3768C101.711 16.3453 101.563 16.2843 101.43 16.197C101.308 16.1121 101.211 15.9971 101.147 15.8633C101.068 15.7011 101.03 15.5217 101.036 15.3412C101.025 15.179 101.045 15.0162 101.096 14.8619C101.155 14.7177 101.243 14.5868 101.353 14.4767C101.455 14.3595 101.585 14.2685 101.729 14.2114C101.864 14.1528 102.01 14.1236 102.157 14.1258H102.217C102.361 14.1293 102.503 14.1583 102.637 14.2114C102.753 14.2615 102.86 14.3309 102.953 14.4168C103.042 14.5055 103.116 14.6063 103.176 14.7164C103.235 14.8318 103.283 14.9521 103.321 15.0758C103.357 15.205 103.383 15.3366 103.398 15.4695C103.407 15.6064 103.407 15.7436 103.398 15.8804V16.2997C103.404 16.4399 103.38 16.5797 103.33 16.7106C103.289 16.8232 103.228 16.9276 103.15 17.0187C103.076 17.1082 102.986 17.1836 102.885 17.2412C102.774 17.3035 102.656 17.3524 102.534 17.3867C102.406 17.4292 102.274 17.4579 102.14 17.4723C102.001 17.4811 101.861 17.4811 101.721 17.4723L100.565 17.5065ZM102.277 14.802H102.2H102.029C101.966 14.8163 101.907 14.8457 101.858 14.8875C101.804 14.9353 101.76 14.9935 101.729 15.0587C101.701 15.1383 101.686 15.2223 101.687 15.3069C101.684 15.392 101.707 15.476 101.755 15.5466C101.8 15.6055 101.859 15.6526 101.926 15.6835C102.003 15.7153 102.084 15.7383 102.166 15.752H102.431H102.825C102.825 15.6578 102.825 15.5551 102.825 15.4524C102.818 15.3448 102.798 15.2384 102.765 15.1358C102.733 15.0407 102.677 14.9553 102.602 14.8875C102.547 14.8486 102.484 14.821 102.418 14.8063C102.352 14.7916 102.284 14.7901 102.217 14.802H102.277Z" fill="white"/>
<path d="M105.812 17.5066C105.629 17.5075 105.445 17.4932 105.264 17.4638C105.133 17.4459 105.005 17.4054 104.888 17.344C104.792 17.298 104.707 17.2311 104.641 17.1481C104.574 17.0652 104.527 16.9683 104.503 16.8647C104.465 16.7452 104.442 16.6216 104.434 16.4966C104.434 16.3597 104.434 16.2056 104.434 16.043V13.1501H105.102V16.0858C105.102 16.257 105.102 16.3939 105.102 16.4966C105.109 16.584 105.142 16.6674 105.196 16.7363C105.252 16.799 105.327 16.8412 105.41 16.8561C105.544 16.8673 105.678 16.8673 105.812 16.8561V17.5066Z" fill="white"/>
<path d="M107.327 14.9646C107.327 14.9646 107.327 15.0074 107.327 15.0673C107.327 15.1272 107.327 15.1871 107.327 15.2642C107.327 15.3412 107.327 15.4268 107.378 15.5295L107.43 15.8119C107.43 15.9146 107.43 16.0088 107.43 16.0944C107.43 16.1799 107.43 16.2655 107.43 16.334C107.434 16.5134 107.399 16.6916 107.327 16.8561C107.266 16.994 107.178 17.119 107.07 17.2241C106.963 17.3145 106.841 17.3868 106.711 17.4381C106.581 17.4809 106.445 17.504 106.308 17.5066H105.701V16.839H106.462H106.582C106.644 16.83 106.702 16.8056 106.751 16.7682C106.8 16.7308 106.839 16.6816 106.865 16.625C106.912 16.5417 106.932 16.4463 106.925 16.3511C106.928 16.2941 106.928 16.237 106.925 16.1799V15.966C106.925 15.8889 106.925 15.8119 106.925 15.7263L106.873 15.4952C106.878 15.4326 106.878 15.3696 106.873 15.307C106.878 15.2643 106.878 15.2213 106.873 15.1786L107.327 14.9646Z" fill="white"/>
<path d="M109.98 17.3611C109.972 17.6135 109.92 17.8626 109.826 18.0971C109.748 18.3108 109.622 18.5039 109.458 18.662C109.297 18.8203 109.105 18.9428 108.893 19.0215C108.651 19.1027 108.396 19.1432 108.14 19.1413H107.721V18.4737H108.14C108.316 18.478 108.492 18.4578 108.662 18.4138C108.8 18.3771 108.927 18.3065 109.03 18.2084C109.128 18.1063 109.201 17.9834 109.244 17.8489C109.292 17.6703 109.315 17.486 109.313 17.3011V15.4011H109.98V17.3611Z" fill="white"/>
<path d="M111.846 17.5322H111.478H111.289L111.075 17.4295L110.836 17.3782L110.63 17.284L110.339 17.1214L110.673 16.5394L110.964 16.702C111.042 16.748 111.125 16.7825 111.212 16.8047L111.538 16.8561H111.948H112.197C112.297 16.8478 112.396 16.8217 112.488 16.7791C112.556 16.7791 112.59 16.7191 112.599 16.6935C112.603 16.6766 112.603 16.659 112.599 16.6421C112.605 16.6024 112.605 16.562 112.599 16.5223C112.564 16.4384 112.521 16.3581 112.47 16.2827L111.991 15.5637L111.692 15.1187L111.546 14.9047V14.8448L111.358 14.5623L111.914 14.1943L112.102 14.4767V14.5367C112.102 14.5367 112.179 14.6394 112.248 14.7506L112.53 15.1786L113.01 15.8975C113.113 16.0525 113.191 16.223 113.241 16.4025C113.249 16.4764 113.249 16.551 113.241 16.625C113.243 16.7336 113.223 16.8415 113.181 16.9417C113.102 17.1059 112.973 17.2409 112.813 17.3268C112.644 17.4205 112.457 17.4788 112.265 17.498C112.185 17.5068 112.105 17.5068 112.025 17.498L111.846 17.5322Z" fill="white"/>
<path d="M57.5918 14.5452C57.8423 14.5452 58.0454 14.3421 58.0454 14.0916C58.0454 13.8411 57.8423 13.638 57.5918 13.638C57.3413 13.638 57.1382 13.8411 57.1382 14.0916C57.1382 14.3421 57.3413 14.5452 57.5918 14.5452Z" fill="white"/>
<path d="M63.523 13.3128C63.7735 13.3128 63.9766 13.1097 63.9766 12.8592C63.9766 12.6086 63.7735 12.4055 63.523 12.4055C63.2724 12.4055 63.0693 12.6086 63.0693 12.8592C63.0693 13.1097 63.2724 13.3128 63.523 13.3128Z" fill="white"/>
<path d="M80.3843 14.5452C80.6348 14.5452 80.8379 14.3421 80.8379 14.0916C80.8379 13.8411 80.6348 13.638 80.3843 13.638C80.1338 13.638 79.9307 13.8411 79.9307 14.0916C79.9307 14.3421 80.1338 14.5452 80.3843 14.5452Z" fill="white"/>
<path d="M91.022 14.5452C91.2725 14.5452 91.4756 14.3421 91.4756 14.0916C91.4756 13.8411 91.2725 13.638 91.022 13.638C90.7714 13.638 90.5684 13.8411 90.5684 14.0916C90.5684 14.3421 90.7714 14.5452 91.022 14.5452Z" fill="white"/>
<path d="M95.9438 15.4525C96.1944 15.4525 96.3975 15.2494 96.3975 14.9988C96.3975 14.7483 96.1944 14.5452 95.9438 14.5452C95.6933 14.5452 95.4902 14.7483 95.4902 14.9988C95.4902 15.2494 95.6933 15.4525 95.9438 15.4525Z" fill="white"/>
<path d="M96.9023 15.4525C97.1529 15.4525 97.356 15.2494 97.356 14.9988C97.356 14.7483 97.1529 14.5452 96.9023 14.5452C96.6518 14.5452 96.4487 14.7483 96.4487 14.9988C96.4487 15.2494 96.6518 15.4525 96.9023 15.4525Z" fill="white"/>
<path d="M101.105 13.8177C101.356 13.8177 101.559 13.6146 101.559 13.3641C101.559 13.1136 101.356 12.9105 101.105 12.9105C100.854 12.9105 100.651 13.1136 100.651 13.3641C100.651 13.6146 100.854 13.8177 101.105 13.8177Z" fill="white"/>
<path d="M84.535 33.1093C84.8736 33.1093 85.2045 33.2097 85.486 33.3977C85.7675 33.5858 85.9869 33.8532 86.1165 34.166C86.246 34.4787 86.2799 34.8229 86.2139 35.155C86.1478 35.487 85.9848 35.792 85.7454 36.0314C85.506 36.2708 85.201 36.4338 84.869 36.4999C84.5369 36.5659 84.1927 36.532 83.8799 36.4025C83.5672 36.2729 83.2998 36.0535 83.1117 35.772C82.9236 35.4905 82.8233 35.1596 82.8233 34.821C82.8233 34.367 83.0036 33.9316 83.3246 33.6106C83.6456 33.2896 84.081 33.1093 84.535 33.1093ZM89.0027 33.1093C89.4567 33.1093 89.8921 33.2896 90.2131 33.6106C90.5341 33.9316 90.7145 34.367 90.7145 34.821C90.7145 35.1596 90.6141 35.4905 90.426 35.772C90.2379 36.0535 89.9705 36.2729 89.6578 36.4025C89.345 36.532 89.0008 36.5659 88.6688 36.4999C88.3367 36.4338 88.0317 36.2708 87.7923 36.0314C87.5529 35.792 87.3899 35.487 87.3238 35.155C87.2578 34.8229 87.2917 34.4787 87.4212 34.166C87.5508 33.8532 87.7702 33.5858 88.0517 33.3977C88.3332 33.2097 88.6641 33.1093 89.0027 33.1093ZM92.4262 33.1093C92.7648 33.1093 93.0957 33.2097 93.3772 33.3977C93.6587 33.5858 93.8781 33.8532 94.0077 34.166C94.1372 34.4787 94.1711 34.8229 94.1051 35.155C94.039 35.487 93.876 35.792 93.6366 36.0314C93.3972 36.2708 93.0922 36.4338 92.7602 36.4999C92.4281 36.5659 92.0839 36.532 91.7712 36.4025C91.4584 36.2729 91.191 36.0535 91.0029 35.772C90.8148 35.4905 90.7145 35.1596 90.7145 34.821C90.7145 34.367 90.8948 33.9316 91.2158 33.6106C91.5368 33.2896 91.9722 33.1093 92.4262 33.1093ZM73.2288 33.1093C73.6828 33.1093 74.1182 33.2896 74.4392 33.6106C74.7603 33.9316 74.9406 34.367 74.9406 34.821C74.9406 35.1596 74.8402 35.4905 74.6521 35.772C74.464 36.0535 74.1967 36.2729 73.8839 36.4025C73.5711 36.532 73.2269 36.5659 72.8949 36.4999C72.5629 36.4338 72.2578 36.2708 72.0185 36.0314C71.7791 35.792 71.616 35.487 71.55 35.155C71.4839 34.8229 71.5178 34.4787 71.6474 34.166C71.7769 33.8532 71.9963 33.5858 72.2778 33.3977C72.5593 33.2097 72.8903 33.1093 73.2288 33.1093ZM69.8053 33.1093C70.2593 33.1093 70.6947 33.2896 71.0157 33.6106C71.3367 33.9316 71.5171 34.367 71.5171 34.821C71.5171 35.1596 71.4167 35.4905 71.2286 35.772C71.0405 36.0535 70.7732 36.2729 70.4604 36.4025C70.1476 36.532 69.8034 36.5659 69.4714 36.4999C69.1393 36.4338 68.8343 36.2708 68.5949 36.0314C68.3555 35.792 68.1925 35.487 68.1265 35.155C68.0604 34.8229 68.0943 34.4787 68.2239 34.166C68.3534 33.8532 68.5728 33.5858 68.8543 33.3977C69.1358 33.2097 69.4668 33.1093 69.8053 33.1093ZM76.6524 33.1093C76.9909 33.1093 77.3219 33.2097 77.6034 33.3977C77.8849 33.5858 78.1043 33.8532 78.2338 34.166C78.3634 34.4787 78.3973 34.8229 78.3312 35.155C78.2652 35.487 78.1022 35.792 77.8628 36.0314C77.6234 36.2708 77.3184 36.4338 76.9863 36.4999C76.6543 36.5659 76.3101 36.532 75.9973 36.4025C75.6845 36.2729 75.4172 36.0535 75.2291 35.772C75.041 35.4905 74.9406 35.1596 74.9406 34.821C74.9406 34.3685 75.1198 33.9344 75.4389 33.6136C75.7581 33.2929 76.1913 33.1115 76.6438 33.1093H76.6524ZM85.8445 22.7189C85.9497 22.7189 86.0508 22.7601 86.126 22.8337C86.2012 22.9073 86.2445 23.0074 86.2468 23.1126V30.3448V30.3876C86.2364 30.8211 86.0618 31.2345 85.7584 31.5443C85.4549 31.8541 85.0452 32.0371 84.612 32.0565H83.217C83.1132 32.0543 83.0143 32.0122 82.941 31.9388C82.8676 31.8654 82.8254 31.7666 82.8233 31.6628V23.104C82.8254 23.0003 82.8676 22.9014 82.941 22.8281C83.0143 22.7547 83.1132 22.7125 83.217 22.7103L85.8445 22.7189ZM90.3208 22.7189C90.4245 22.7211 90.5234 22.7633 90.5967 22.8366C90.6701 22.91 90.7123 23.0089 90.7145 23.1126V28.2479C90.7167 28.3531 90.7601 28.4532 90.8353 28.5268C90.9105 28.6004 91.0115 28.6416 91.1167 28.6416H112.676C112.729 28.6404 112.781 28.6498 112.83 28.669C112.878 28.6883 112.923 28.7171 112.96 28.7538C112.998 28.7905 113.027 28.8343 113.048 28.8826C113.068 28.9309 113.079 28.9828 113.079 29.0353V30.3362V30.3876C113.068 30.8197 112.895 31.2319 112.593 31.5415C112.292 31.851 111.884 32.035 111.452 32.0565H87.5563C87.5218 32.0565 87.4877 32.0496 87.456 32.0362C87.4243 32.0228 87.3956 32.0031 87.3716 31.9783C87.3477 31.9536 87.3289 31.9242 87.3165 31.8921C87.3041 31.8599 87.2984 31.8256 87.2995 31.7912V23.1297C87.2995 23.0253 87.341 22.9252 87.4148 22.8513C87.4886 22.7775 87.5888 22.736 87.6932 22.736L90.3208 22.7189ZM61.5375 22.7189C62.7704 22.7264 63.9656 23.1445 64.9343 23.907C65.903 24.6696 66.59 25.7332 66.8868 26.9298C67.1607 28.0168 67.1435 28.6416 68.0679 28.6416H78.056C78.1234 28.6394 78.1875 28.6117 78.2352 28.564C78.2829 28.5163 78.3106 28.4522 78.3128 28.3848C78.3128 28.128 78.3128 27.9654 78.3128 27.897V27.8456C78.3128 27.3916 78.1324 26.9562 77.8114 26.6352C77.4904 26.3142 77.055 26.1338 76.601 26.1338H72.159C71.6654 26.1495 71.1742 26.0582 70.7191 25.8661C70.2641 25.6741 69.856 25.3858 69.5229 25.0212C69.2266 24.4697 69.0598 23.858 69.035 23.2324V23.1639C69.0279 23.0609 69.0616 22.9591 69.1289 22.8806C69.1961 22.8022 69.2915 22.7533 69.3945 22.7446H76.5069C77.7733 22.6421 79.0371 22.9709 80.093 23.6775C80.6413 24.1451 81.0791 24.7285 81.3751 25.3855C81.6711 26.0426 81.8178 26.757 81.8048 27.4776C81.8048 28.2907 81.8048 29.6515 81.8048 31.5687V31.6714C81.8026 31.7751 81.7604 31.874 81.687 31.9474C81.6137 32.0207 81.5148 32.0629 81.4111 32.0651H67.0494C66.1262 32.0426 65.249 31.6572 64.6082 30.9922C63.9673 30.3273 63.6143 29.4366 63.6259 28.5132V27.9911C63.613 27.7304 63.5478 27.475 63.4341 27.2401C63.3203 27.0052 63.1604 26.7957 62.9639 26.6239C62.7674 26.4522 62.5383 26.3218 62.2903 26.2405C62.0423 26.1593 61.7805 26.1288 61.5204 26.151C61.2597 26.1336 60.9982 26.1683 60.7511 26.253C60.504 26.3378 60.2762 26.4708 60.081 26.6445C59.8858 26.8182 59.7272 27.0289 59.6143 27.2645C59.5014 27.5001 59.4366 27.7559 59.4235 28.0168V28.5132C59.4235 31.5344 57.8401 32.0651 56.3937 32.0651C56.0171 32.0651 56 31.9453 56 31.5944V28.1708C56.0247 26.7178 56.6187 25.3325 57.6543 24.3129C58.6899 23.2933 60.0843 22.7209 61.5375 22.7189Z" fill="white"/>
<path d="M135.34 19.7918C137.276 21.2009 138.584 23.311 138.986 25.6717C139.23 26.9635 139.187 28.2933 138.86 29.5667C138.533 30.8401 137.93 32.0262 137.094 33.0408L137.034 33.1178C136.955 33.2156 136.841 33.2785 136.716 33.2929C136.592 33.3073 136.466 33.2721 136.367 33.1948C136.331 33.1618 136.299 33.1244 136.273 33.0836C135.448 31.962 134.793 30.7247 134.33 29.4118C134.153 28.5904 134.062 27.7529 134.056 26.9127C134.01 26.211 133.786 25.5327 133.404 24.9424C133.022 24.352 132.495 23.8694 131.873 23.5405C131.354 23.2602 130.782 23.092 130.193 23.0467C129.605 23.0014 129.013 23.0801 128.457 23.2776C127.901 23.4751 127.393 23.7871 126.965 24.1934C126.537 24.5997 126.199 25.0913 125.972 25.6364C125.746 26.1815 125.637 26.768 125.651 27.3579C125.666 27.9479 125.804 28.5283 126.057 29.0616C126.31 29.5948 126.672 30.0691 127.119 30.4538C127.567 30.8385 128.09 31.125 128.655 31.2948C129.714 31.5873 130.843 31.4744 131.822 30.9781C131.929 30.9297 132.05 30.9222 132.162 30.9569C132.274 30.9916 132.369 31.0661 132.43 31.1664L134.492 34.7269C134.555 34.8347 134.572 34.9629 134.539 35.0832C134.507 35.2035 134.429 35.3062 134.321 35.3688C132.224 36.4933 129.784 36.7984 127.474 36.2246C125.185 35.5886 123.218 34.1163 121.962 32.0993C120.821 30.2141 120.387 27.9843 120.738 25.8086C121.706 19.1413 129.862 15.6493 135.34 19.7918ZM136.684 12.0889H136.786C136.848 12.0931 136.908 12.1097 136.963 12.1376C137.018 12.1654 137.067 12.204 137.107 12.2511C137.147 12.2982 137.177 12.3527 137.195 12.4116C137.214 12.4705 137.22 12.5324 137.214 12.5938C137.223 12.6419 137.223 12.6912 137.214 12.7393C136.712 14.0295 135.813 15.1266 134.647 15.8718C133.316 16.6296 131.774 16.9302 130.256 16.7277H130.153C130.091 16.7235 130.03 16.7067 129.974 16.6783C129.919 16.6499 129.869 16.6105 129.829 16.5625C129.789 16.5145 129.759 16.4589 129.742 16.399C129.724 16.3391 129.718 16.2763 129.725 16.2142C129.721 16.1715 129.721 16.1285 129.725 16.0858C130.205 14.7985 131.084 13.6981 132.233 12.9447C133.577 12.165 135.143 11.8549 136.684 12.0632V12.0889Z" fill="white"/>
</svg>
