<svg width="24" height="24" viewBox="0 0 24 24" fill="none" xmlns="http://www.w3.org/2000/svg">
<path d="M24 3.68821V20.3118C24 22.3492 22.3492 24 20.3118 24H3.68821C1.65078 24 0 22.3492 0 20.3118V3.68821C0 1.65078 1.65078 0 3.68821 0H20.3118C22.3492 0 24 1.6531 24 3.68821Z" fill="#1D1D1B"/>
<path d="M13.2757 11.1873L12.7594 10.4395L9.37915 5.54041H5.70483L10.7035 12.852L11.2198 13.6068L14.5399 18.4642H18.2952L13.2757 11.1873ZM11.7685 12.9585L11.2545 12.206L7.25606 6.35769H8.95083L12.2107 11.0831L12.727 11.831L16.7371 17.6423H14.9728L11.7685 12.9585Z" fill="white"/>
<path d="M11.2545 12.2058L11.7685 12.9583L11.2198 13.6042L7.08938 18.4616H5.9248L10.7035 12.8518L11.2545 12.2058Z" fill="white"/>
<path d="M18.0776 5.54016L13.2757 11.1871L12.727 11.8307L12.2107 11.0829L12.7594 10.4393L16.9315 5.54016H18.0776Z" fill="white"/>
</svg>
